<svg xmlns="http://www.w3.org/2000/svg" height="2048" preserveAspectRatio="none" style="display: block;" version="1.1" viewBox="0 0 2048 2048" width="2048">
<path d="M 1346.26 1081.27 C 1357.47 1083.16 1362.39 1083.41 1373.84 1081.57 C 1379.03 1080.74 1385.89 1077.43 1389.82 1078.83 C 1388.21 1087.43 1409.27 1125.86 1414.83 1134.09 C 1440.32 1171.12 1477.29 1198.73 1520.04 1212.66 C 1528.27 1215.29 1547.27 1219.26 1555.74 1219.75 L 1556.63 1221.01 C 1564.05 1231.28 1566.65 1228.09 1567.11 1243.36 C 1572.15 1247.62 1587.32 1263.13 1591.68 1264.04 L 1594.32 1262.21 C 1592.47 1266.37 1592.15 1265.4 1592.77 1269.17 C 1632.83 1308.36 1655.74 1361.84 1656.47 1417.88 C 1658.23 1589.76 1482.57 1709.24 1324.89 1633.23 C 1314.12 1628.04 1305.05 1623.38 1296.1 1615.28 L 1295.34 1614.87 C 1280.81 1607 1272.57 1596.84 1263.52 1591.79 C 1261.92 1592.46 1260.83 1592.62 1260.38 1594.69 C 1256.37 1613.58 1252.79 1632.5 1247.73 1651.19 C 1246.07 1657.31 1243.4 1657.19 1242.79 1663.93 C 1239.42 1665.45 1237.45 1664.07 1236.05 1660.94 C 1231.74 1651.36 1209.16 1651.55 1207.29 1649.06 C 1219.28 1624.94 1222.73 1583.35 1219.9 1556.47 C 1214.79 1508.07 1192.06 1465.23 1155.55 1433.81 C 1147.32 1426.83 1138.5 1420.56 1129.21 1415.08 C 1117.07 1407.88 1089.86 1395.24 1075.76 1394.12 C 1074.32 1394.01 1049.28 1412.48 1047.38 1414.97 C 1043.24 1413.59 1039.65 1415.08 1035.38 1415.79 C 1025.14 1417.5 1017.33 1416.9 1007.25 1414.77 C 1005.32 1415.64 1006.22 1415.66 1004.57 1415.11 C 1002.64 1412.85 994.801 1408.59 991.327 1405.26 C 988.474 1402.53 983.658 1396.91 980.879 1395.47 C 972.958 1384.66 971.105 1377.86 969.913 1364.66 C 969.529 1360.41 970.325 1357.89 968.504 1353.94 C 973.21 1346.14 972.885 1337.23 981.31 1326.97 C 989.451 1317.06 1002.41 1313.72 1007.32 1304.2 C 1008.88 1301.72 1008.41 1261.35 1008.63 1254.08 C 1017.07 1260.7 1024.99 1264.33 1036.12 1260.09 C 1039.49 1258.81 1040.75 1256.06 1044.87 1255.29 C 1045.02 1259.61 1044.56 1261.63 1047.14 1265.11 C 1050.04 1275.78 1043.84 1294.38 1047.13 1305.07 C 1048.97 1311.03 1067.72 1319.33 1070.84 1324.48 C 1085.65 1348.87 1075.1 1354.68 1107.38 1362.27 C 1123.88 1366.15 1151.07 1383.02 1166.2 1392.04 C 1172.8 1396.15 1180.53 1405.94 1187.24 1409.95 C 1195.48 1407.23 1190.26 1391.57 1192.18 1384.71 C 1195.61 1372.43 1198.18 1359.07 1202.04 1347.01 C 1206.54 1332.99 1216.85 1319.85 1221.1 1305.85 C 1222.33 1300.97 1209.17 1284.12 1207.91 1273.7 C 1206.3 1260.29 1210.64 1257.44 1212.42 1244.38 C 1212.63 1242.77 1211.62 1240.33 1209.35 1238.17 C 1195.3 1224.77 1172.44 1199.4 1157.56 1189.08 C 1150.49 1190.36 1135.83 1193.65 1129.22 1192.24 C 1103.06 1186.67 1080.52 1159.52 1084.33 1132.12 C 1087.93 1106.19 1098.96 1098.37 1119.15 1083.83 C 1131.99 1083.88 1131.51 1077.47 1150.73 1082.24 C 1175.6 1088.41 1192.39 1106.56 1196.34 1131.96 C 1197.38 1138.63 1192.34 1155.18 1194.41 1158.65 C 1202.53 1172.23 1233.47 1194.13 1240.74 1206.24 C 1251.5 1212.06 1252.9 1210.1 1264.71 1208.23 C 1272.19 1207.04 1277.34 1206.88 1284.87 1208.44 C 1288.21 1209.13 1307.19 1219.3 1308.39 1218.85 C 1326.71 1211.9 1343.89 1202.31 1362.91 1196.79 C 1373.52 1193.71 1396.49 1192.12 1402.71 1187.81 C 1403.44 1182.11 1382.64 1159.32 1377.97 1150.66 C 1367.85 1131.89 1356.58 1111.57 1351.43 1090.62 C 1350.06 1085.03 1350.67 1086.03 1346.26 1081.27 z M 1362.98 1325.57 L 1364.47 1325.34 C 1373.58 1323.85 1381.87 1319.26 1391.13 1316.57 C 1455.46 1297.88 1523.8 1336.53 1535.27 1404.27 C 1545.67 1465.71 1507.16 1524.37 1444.86 1535.9 C 1415.99 1541.24 1382.29 1533.52 1359.09 1515.62 C 1330.98 1493.85 1318.13 1471.03 1313.26 1436.22 C 1308.13 1399.56 1322.76 1384.94 1330.46 1355.52 C 1318.8 1345.79 1309.21 1334.38 1297.72 1324.56 C 1296.49 1323.5 1293.5 1323.17 1291.84 1322.94 C 1274.65 1328.22 1262.69 1319.48 1252.72 1336.92 C 1241.03 1357.37 1235.39 1375.26 1231.94 1398.25 C 1226.6 1421.79 1231.37 1425.85 1231.72 1447.68 C 1232.21 1473.56 1251.97 1513.75 1267.17 1534.48 C 1275.09 1545.27 1282.69 1552.48 1291.64 1561.64 C 1302.92 1573.17 1311.12 1576.76 1322.94 1585.74 C 1339.04 1594.28 1348.4 1600.96 1366.87 1606.78 C 1469.85 1639.2 1575.71 1582.58 1607.05 1479.21 C 1622.46 1429.52 1616.91 1375.7 1591.68 1330.2 C 1574.71 1299.01 1549.53 1272.73 1517.51 1256.37 C 1509.13 1252.09 1494.93 1248.15 1485.36 1244.13 C 1478.53 1241.27 1460.32 1230.56 1454.83 1229.67 C 1419.8 1223.97 1370.33 1234.96 1339.59 1251.84 C 1329.45 1257.41 1331.94 1263.78 1330.86 1273.03 C 1330.31 1277.72 1328.94 1281.72 1327.79 1286.21 C 1328.09 1288.33 1328.41 1291.08 1329.86 1292.57 C 1340.39 1303.44 1352.76 1314.55 1362.98 1325.57 z M 1138.51 1120.24 C 1130.65 1122.51 1122.17 1131.23 1124.44 1139.99 C 1127.23 1150.72 1131.54 1151.17 1140.88 1151.78 C 1152.6 1151.43 1151.27 1148.9 1155.9 1137.4 C 1151.18 1125.79 1151.54 1121.21 1138.51 1120.24 z M 1025.24 1344.95 C 1015.55 1349.98 1003.88 1362.15 1016.2 1374.79 C 1016.88 1375.49 1024.93 1377.71 1026.91 1378.47 C 1035.19 1374.63 1033.93 1376.28 1039.83 1368.81 L 1039.73 1355.48 C 1034.53 1350.53 1031.75 1347.04 1025.24 1344.95 z M 1407.22 1353.15 C 1367.77 1363.14 1343.8 1403.1 1353.55 1442.61 C 1363.3 1482.11 1403.11 1506.33 1442.67 1496.82 C 1482.58 1487.23 1507.05 1446.99 1497.22 1407.15 C 1487.39 1367.3 1447 1343.07 1407.22 1353.15 z" fill="rgb(19,47,80)" transform="translate(0,0)"></path>
<path d="M 1291.84 1322.94 C 1294.69 1320.6 1299.75 1317.58 1302.95 1315.32 C 1317.21 1305.25 1318.99 1299.9 1326.93 1286 L 1327.79 1286.21 C 1328.09 1288.33 1328.41 1291.08 1329.86 1292.57 C 1340.39 1303.44 1352.76 1314.55 1362.98 1325.57 L 1364.47 1325.34 C 1373.58 1323.85 1381.87 1319.26 1391.13 1316.57 C 1455.46 1297.88 1523.8 1336.53 1535.27 1404.27 C 1545.67 1465.71 1507.16 1524.37 1444.86 1535.9 C 1415.99 1541.24 1382.29 1533.52 1359.09 1515.62 C 1330.98 1493.85 1318.13 1471.03 1313.26 1436.22 C 1308.13 1399.56 1322.76 1384.94 1330.46 1355.52 C 1318.8 1345.79 1309.21 1334.38 1297.72 1324.56 C 1296.49 1323.5 1293.5 1323.17 1291.84 1322.94 z M 1442.67 1496.82 C 1482.58 1487.23 1507.05 1446.99 1497.22 1407.15 C 1487.39 1367.3 1447 1343.07 1407.22 1353.15 C 1367.77 1363.14 1343.8 1403.1 1353.55 1442.61 C 1363.3 1482.11 1403.11 1506.33 1442.67 1496.82 z" fill="rgb(6,185,180)" transform="translate(0,0)"></path>
<path d="M 1008.63 1254.08 C 1017.07 1260.7 1024.99 1264.33 1036.12 1260.09 C 1039.49 1258.81 1040.75 1256.06 1044.87 1255.29 C 1045.02 1259.61 1044.56 1261.63 1047.14 1265.11 C 1050.04 1275.78 1043.84 1294.38 1047.13 1305.07 C 1048.97 1311.03 1067.72 1319.33 1070.84 1324.48 C 1085.65 1348.87 1075.1 1354.68 1107.38 1362.27 C 1123.88 1366.15 1151.07 1383.02 1166.2 1392.04 C 1172.8 1396.15 1180.53 1405.94 1187.24 1409.95 L 1189.96 1409.92 C 1193.98 1414.51 1194.74 1424.31 1204.62 1428.64 C 1215.19 1433.28 1222.01 1425.89 1227.51 1418.29 C 1227.7 1423.28 1229.08 1445.12 1231.72 1447.68 C 1232.21 1473.56 1251.97 1513.75 1267.17 1534.48 C 1275.09 1545.27 1282.69 1552.48 1291.64 1561.64 C 1302.92 1573.17 1311.12 1576.76 1322.94 1585.74 L 1321.72 1588.1 C 1321.28 1588.13 1320.84 1588.16 1320.4 1588.19 C 1315.26 1588.12 1305.2 1591.24 1302.11 1595.4 C 1299.06 1599.51 1298.09 1609.36 1298.18 1614.47 C 1297.49 1614.74 1296.79 1615.01 1296.1 1615.28 L 1295.34 1614.87 C 1280.81 1607 1272.57 1596.84 1263.52 1591.79 C 1261.92 1592.46 1260.83 1592.62 1260.38 1594.69 C 1256.37 1613.58 1252.79 1632.5 1247.73 1651.19 C 1246.07 1657.31 1243.4 1657.19 1242.79 1663.93 C 1239.42 1665.45 1237.45 1664.07 1236.05 1660.94 C 1231.74 1651.36 1209.16 1651.55 1207.29 1649.06 C 1219.28 1624.94 1222.73 1583.35 1219.9 1556.47 C 1214.79 1508.07 1192.06 1465.23 1155.55 1433.81 C 1147.32 1426.83 1138.5 1420.56 1129.21 1415.08 C 1117.07 1407.88 1089.86 1395.24 1075.76 1394.12 C 1074.32 1394.01 1049.28 1412.48 1047.38 1414.97 C 1043.24 1413.59 1039.65 1415.08 1035.38 1415.79 C 1025.14 1417.5 1017.33 1416.9 1007.25 1414.77 C 1005.32 1415.64 1006.22 1415.66 1004.57 1415.11 C 1002.64 1412.85 994.801 1408.59 991.327 1405.26 C 988.474 1402.53 983.658 1396.91 980.879 1395.47 C 972.958 1384.66 971.105 1377.86 969.913 1364.66 C 969.529 1360.41 970.325 1357.89 968.504 1353.94 C 973.21 1346.14 972.885 1337.23 981.31 1326.97 C 989.451 1317.06 1002.41 1313.72 1007.32 1304.2 C 1008.88 1301.72 1008.41 1261.35 1008.63 1254.08 z M 1026.91 1378.47 C 1035.19 1374.63 1033.93 1376.28 1039.83 1368.81 L 1039.73 1355.48 C 1034.53 1350.53 1031.75 1347.04 1025.24 1344.95 C 1015.55 1349.98 1003.88 1362.15 1016.2 1374.79 C 1016.88 1375.49 1024.93 1377.71 1026.91 1378.47 z" fill="rgb(6,185,180)" transform="translate(0,0)"></path>
<path d="M 1265.76 1241.65 C 1279.03 1240.16 1291.02 1249.66 1292.59 1262.92 C 1294.16 1276.18 1284.72 1288.22 1271.47 1289.86 C 1258.12 1291.52 1245.96 1281.99 1244.38 1268.63 C 1242.8 1255.26 1252.39 1243.16 1265.76 1241.65 z" fill="rgb(6,185,180)" transform="translate(0,0)"></path>
<path d="M 1138.51 1120.24 C 1151.54 1121.21 1151.18 1125.79 1155.9 1137.4 C 1151.27 1148.9 1152.6 1151.43 1140.88 1151.78 C 1131.54 1151.17 1127.23 1150.72 1124.44 1139.99 C 1122.17 1131.23 1130.65 1122.51 1138.51 1120.24 z" fill="rgb(254,254,254)" fill-opacity="0.00784314" transform="translate(0,0)"></path>
<path d="M 648.461 1181.85 C 647.442 1186.54 647.155 1184.92 648.579 1189.08 C 650.526 1190.87 670.24 1193.25 674.214 1193.39 C 698.071 1194.26 727.915 1216.46 747.383 1220.33 C 758.707 1217.71 762.925 1212.15 776.973 1210.77 C 785.037 1209.98 805.852 1213.83 808.582 1211.81 C 819.907 1203.44 850.99 1172.29 858.548 1162.31 C 859.7 1156.67 856.502 1147.14 856.231 1140.99 C 853.654 1082.49 924.249 1059.38 957.984 1106 C 964.756 1115.35 963.96 1126.85 967.82 1137.71 C 962.346 1157.52 961.767 1170.85 942.166 1182.7 C 918.403 1197.06 914.609 1189.97 893.055 1192.63 C 882.969 1202.9 872.768 1213.04 862.452 1223.08 C 854.804 1230.55 847.743 1236.56 841.357 1245.24 C 845.667 1257.08 847.267 1279.57 840.666 1291.81 C 839.147 1294.62 831.994 1305.56 832.336 1307.78 C 833.604 1316.01 840.472 1326.19 844.057 1334.02 C 848.32 1343.33 851.137 1351.74 854.052 1361.49 C 858.079 1372.5 858.568 1396.3 861.781 1405.05 C 868.032 1404.82 914.53 1367.52 928.427 1366.27 C 929.799 1366.14 968.929 1353.57 968.504 1353.94 C 970.325 1357.89 969.529 1360.41 969.913 1364.66 C 971.105 1377.86 972.958 1384.66 980.879 1395.47 C 966.613 1395.03 966.08 1397.77 953.003 1401.68 C 927.564 1409.27 903.212 1424.07 883.669 1442.67 C 848.055 1476.56 831.484 1526.26 828.636 1574.55 C 827.742 1589.72 835.253 1626.03 839.947 1640.91 C 840.72 1643.37 840.6 1643.82 840.749 1646.45 C 845.998 1653.54 845.692 1653.96 854.124 1657.03 C 864.664 1672.29 864.427 1674.79 864.844 1692.74 L 863.425 1690.79 C 858.751 1694.72 855.779 1709.1 844.078 1711.17 C 841.077 1711.7 833.105 1713.32 831.4 1714.86 L 831.339 1715.44 C 816.99 1709.31 816.89 1712.78 805.8 1699.58 C 792.057 1683.23 807.922 1666.74 803.136 1656.28 C 793.517 1635.27 792.099 1617.55 790.672 1594.94 C 788.873 1592.1 790.11 1593.17 786.514 1592.06 C 779.629 1596.14 771.144 1604.65 764.218 1610.04 C 731.534 1635.48 694.795 1649.9 653.821 1655.84 C 643.123 1657.13 631.662 1656.15 621.045 1656.6 C 579.962 1658.35 539.324 1643.41 504.397 1622.84 C 500.462 1620.52 493.433 1616.37 490.653 1612.77 C 479.835 1606.46 471.72 1597.68 462.907 1588.99 C 380.773 1507.99 372.065 1372.81 444.294 1282.63 C 448.67 1277.16 458.663 1270 458.045 1263.9 C 453.882 1258.92 452.438 1260.91 446.555 1259.94 C 437.568 1258.47 428.759 1257.43 419.808 1255.61 C 411.782 1253.98 403.781 1249.25 395.633 1248.56 C 386.778 1248.64 374.744 1255.25 365.544 1252.08 C 345.872 1245.31 348.872 1233.26 337.731 1220.31 C 335.143 1217.3 325.271 1211.61 321.232 1207.81 C 295.696 1183.79 277.179 1165.78 261.373 1133.91 C 264.842 1128.22 265.615 1119.86 272.048 1116.16 C 278.265 1112.58 286.773 1113.76 293.363 1115.49 L 294.439 1114.05 C 296.43 1115.39 295.394 1114.35 296.48 1116.37 C 313.013 1147.11 332.775 1167.37 360.483 1188.04 C 368.385 1187.94 377.137 1187.63 384.962 1188.03 C 386.421 1189.02 391.77 1192.45 393.07 1192.7 C 402.277 1194.43 403.809 1208.7 409.953 1210.97 C 476.242 1235.44 546.366 1219.81 600.854 1175.64 C 607.2 1170.49 614.167 1160.96 619.322 1157.57 C 619.648 1157.78 619.974 1157.99 620.299 1158.19 C 640.07 1160.87 642.575 1160.55 646.757 1181.57 L 648.461 1181.85 z M 792.102 1328.67 C 785.773 1328.81 762.389 1325.78 760.001 1327.56 C 753.355 1332.53 723.205 1359.67 721.272 1366.13 C 722.677 1367.99 723.95 1369.96 725.082 1372 C 738.125 1395.5 740.207 1430.63 733.313 1456.2 C 724.478 1485.76 706.026 1510.43 678.417 1524.67 C 621.815 1553.87 554.454 1532.25 523.728 1477 C 509.955 1452.23 507.857 1414.07 516.856 1387.6 C 526.328 1359.74 550.672 1334.57 577.233 1322.28 C 615.858 1304.19 652.547 1311.66 689.248 1329.85 C 689.529 1329.94 689.811 1330.03 690.092 1330.12 L 693.283 1329.33 C 700.655 1322.18 724.578 1300.88 727.866 1291.18 C 729.099 1287.54 725.818 1283.42 723.629 1280.47 C 723.538 1273.18 723.935 1265.83 724.243 1258.54 C 715.291 1246.47 670.252 1233.98 654.37 1231.25 C 634.353 1227.81 611.364 1225.6 591.795 1233.18 C 584.559 1235.98 577.98 1240.3 570.162 1243.03 C 555.54 1248.15 538.181 1252.24 525.533 1261.1 C 515.528 1268.47 503.255 1277.35 494.332 1285.6 C 407.491 1365.97 414.431 1501.45 506.346 1574.76 C 510.084 1577.74 514.389 1579.66 517.915 1582.29 C 560.164 1612.81 616.016 1623.72 666.761 1612.07 C 718.723 1600.31 763.794 1568.19 791.874 1522.91 C 818.569 1479.88 830.403 1432.24 818.091 1382.6 C 814.77 1369.21 803.68 1335.91 792.102 1328.67 z M 607.179 1353.09 C 568.085 1362.44 543.66 1401.35 552.238 1440.62 C 560.817 1479.89 599.243 1505.07 638.674 1497.27 C 664.877 1492.08 686.232 1473.14 694.509 1447.74 C 702.786 1422.34 696.694 1394.45 678.58 1374.82 C 660.467 1355.19 633.158 1346.88 607.179 1353.09 z M 915.318 1151.68 C 921.192 1150.74 923.528 1146.83 927.804 1142.44 C 927.676 1138.97 928.414 1132.16 925.329 1129.67 C 919.066 1124.63 918.794 1121.86 910.942 1119.95 C 903.172 1122.14 893.505 1132.37 896.65 1140.99 C 900.781 1152.3 905.5 1151.74 915.318 1151.68 z" fill="rgb(19,47,80)" transform="translate(0,0)"></path>
<path d="M 721.272 1366.13 C 722.677 1367.99 723.95 1369.96 725.082 1372 C 738.125 1395.5 740.207 1430.63 733.313 1456.2 C 724.478 1485.76 706.026 1510.43 678.417 1524.67 C 621.815 1553.87 554.454 1532.25 523.728 1477 C 509.955 1452.23 507.857 1414.07 516.856 1387.6 C 526.328 1359.74 550.672 1334.57 577.233 1322.28 C 615.858 1304.19 652.547 1311.66 689.248 1329.85 C 689.529 1329.94 689.811 1330.03 690.092 1330.12 C 691.538 1337.89 685.887 1347.01 692.696 1355.69 C 700.403 1365.51 709.865 1362.89 720.415 1363.89 L 721.272 1366.13 z M 638.674 1497.27 C 664.877 1492.08 686.232 1473.14 694.509 1447.74 C 702.786 1422.34 696.694 1394.45 678.58 1374.82 C 660.467 1355.19 633.158 1346.88 607.179 1353.09 C 568.085 1362.44 543.66 1401.35 552.238 1440.62 C 560.817 1479.89 599.243 1505.07 638.674 1497.27 z" fill="rgb(6,185,180)" transform="translate(0,0)"></path>
<path d="M 458.045 1263.9 L 458.308 1262.41 C 461.636 1260.21 471.856 1261.35 476.603 1261.56 C 492.75 1262.28 509.664 1260.2 525.64 1257.74 L 526.492 1258.38 L 525.533 1261.1 C 515.528 1268.47 503.255 1277.35 494.332 1285.6 C 407.491 1365.97 414.431 1501.45 506.346 1574.76 C 510.084 1577.74 514.389 1579.66 517.915 1582.29 C 509.827 1582.88 501.224 1584.17 494.813 1589.58 C 489.945 1593.68 492.29 1608.51 490.653 1612.77 C 479.835 1606.46 471.72 1597.68 462.907 1588.99 C 380.773 1507.99 372.065 1372.81 444.294 1282.63 C 448.67 1277.16 458.663 1270 458.045 1263.9 z" fill="rgb(6,185,180)" transform="translate(0,0)"></path>
<path d="M 777.854 1245.34 C 790.764 1242.64 803.448 1250.8 806.349 1263.67 C 809.25 1276.53 801.296 1289.35 788.48 1292.46 C 780.003 1294.51 771.076 1291.84 765.126 1285.46 C 759.175 1279.08 757.125 1269.99 759.763 1261.68 C 762.4 1253.36 769.315 1247.12 777.854 1245.34 z" fill="rgb(6,185,180)" transform="translate(0,0)"></path>
<path d="M 1222.51 337.235 C 1227.27 340.447 1231.06 340.465 1235.21 342.896 C 1256.22 355.179 1246.92 375.961 1248.62 393.226 C 1249.98 407.116 1258.15 423.808 1259.27 438.444 C 1260.25 445.213 1257.01 454.426 1261.23 459.014 C 1268.22 460.116 1280.16 444.318 1289.21 440.52 C 1297.19 445.149 1303.63 441.288 1311.17 452.051 C 1316.21 459.254 1310.95 469.823 1316.07 470.478 C 1311.83 474.391 1305.47 477.442 1300.9 481.372 C 1271.2 506.904 1249.58 533.06 1240.02 571.906 C 1235.51 587.82 1230.21 596.841 1229.29 616.304 C 1228.16 645.018 1235.14 675.748 1247.68 701.56 C 1250.26 706.869 1251.9 712.088 1255.42 716.92 C 1259.41 722.918 1267.26 717.861 1271.94 718.492 C 1294.85 721.582 1298.31 726.832 1314.82 706.671 C 1319.76 700.637 1328.19 695.764 1329.66 687.652 L 1330.64 690.015 C 1355.34 683.402 1372.26 692.007 1363.79 719.733 L 1364.43 721.167 C 1355.39 727.368 1349.57 734.54 1342.39 741.46 C 1328.4 754.935 1330.83 756.166 1336.58 773.677 C 1338.22 778.669 1333.62 795.358 1335.15 799.339 L 1333.5 799.321 C 1330.34 804.068 1328.55 808.782 1325.79 813.078 C 1322.01 818.977 1313.4 826.717 1308.06 831.643 C 1281.16 846.01 1274.48 838.946 1249.7 837.619 C 1243.15 842.582 1194.7 889.04 1192.86 894.861 C 1191.94 897.776 1192.12 899.661 1193.55 902.285 C 1194.34 903.743 1195.1 905.076 1195.58 906.678 C 1199.15 918.632 1190.59 938.518 1184.44 948.754 C 1178.57 958.544 1163.06 966.623 1152.47 969.327 C 1137.81 973.067 1122.58 970.134 1109.78 962.157 C 1096.41 953.835 1087.73 939.991 1084.47 924.735 C 1081.36 910.166 1085.29 897.979 1093.24 885.854 C 1103.15 870.717 1121.34 859.854 1139.79 860.277 C 1146.26 860.425 1153.45 862.233 1159.79 860.751 C 1160.18 860.658 1160.58 860.533 1160.97 860.437 C 1162.01 860.189 1163.03 860.026 1163.97 859.488 C 1170.75 855.609 1215.45 809.336 1216.29 803.641 C 1217.05 798.479 1215.31 794.299 1212.35 790.159 C 1212.14 789.868 1211.92 789.582 1211.71 789.294 C 1211.58 784.315 1211.21 778.671 1212.15 773.162 C 1211.89 768.697 1223.66 740.998 1222.89 740.368 C 1212.61 731.968 1197.71 688.883 1194.68 674.108 C 1193.08 666.329 1191.59 650.246 1189.54 645.312 C 1184.48 645.653 1172.35 657.339 1167.6 661.104 C 1154.95 671.16 1141.14 679.665 1126.46 686.44 C 1113.7 692.469 1097.01 695.865 1085.44 701.728 C 1080.7 704.134 1077.55 723.728 1071.95 729.877 C 1061.03 741.873 1054.57 742.006 1043.7 755.002 C 1045.7 766.863 1043.13 814.077 1048.82 817.975 C 1078.81 838.503 1081.21 848.582 1080.53 883.762 C 1073.28 892.714 1075.03 900.784 1062.43 911.876 C 1056.57 912.055 1049.97 919.837 1038.49 922.901 C 1025.44 926.504 1011.49 924.545 999.938 917.488 C 966.8 897.613 959.522 857.243 988.675 829.086 C 995.805 822.2 1002.17 820.645 1007.65 811.851 L 1007.47 811.091 C 1003.67 794.068 1008.31 774.008 1006.22 756.553 C 1005.61 751.527 999.845 746.79 995.959 743.951 C 988.315 738.366 980.465 732.812 975.615 724.329 C 971.742 717.556 973.473 704.608 965.323 700.537 C 960.256 698.005 953.016 696.958 947.565 695.098 C 921.692 689.211 901.681 674.085 879.114 661.272 C 870.75 656.524 874.468 649.13 860.18 651.949 C 863.02 649.747 862.305 651.105 862.968 648.094 C 856.998 636.971 841.274 662.635 825.807 634.533 C 822.244 637.437 825.079 640.891 820.682 647.173 C 822.56 640.399 824.176 632.053 823.64 625.044 C 810.532 453.734 609.166 372.523 487.603 494.306 C 484.247 492.772 478.381 493.525 474.254 493.638 C 463.552 488.306 459.757 483.407 458.602 471.743 L 458.441 470.041 L 453.431 472.866 C 531.257 380.572 681.935 370.435 773.156 446.296 C 777.4 449.825 785.854 456.874 790.328 459.035 C 793.567 452.59 791.384 446.831 793.139 438.647 C 796.887 421.174 800.281 407.453 807.166 390.963 C 807.402 390.841 808.372 390.247 808.695 390.511 C 817.582 397.77 824.807 402.968 837.083 401.44 C 840.154 401.058 840.442 402.562 840.847 405.246 L 840.616 406.086 C 839.405 410.364 836.853 414.558 835.958 418.482 C 832.376 434.18 821.356 478.174 831.525 491.55 C 832.726 496.74 831.571 507.882 832.898 512.108 C 836.792 524.974 843.66 537.375 848.2 549.95 C 854.967 568.688 857.427 581.692 870.646 597.325 C 895.511 626.73 942.726 657.469 981.281 660.535 C 989.922 651.369 991.792 648.554 1002.89 642.943 L 1006.88 635.156 C 1004.53 627.139 1006.46 599.605 1006.85 589.392 C 1005.58 587.205 1003.08 582.898 1000.62 582.083 C 974.263 573.421 950.121 562.209 933.219 539.089 C 897.561 490.311 902.244 415.687 952.094 378.131 C 978.272 360.168 1005.07 349.75 1036.97 353.045 C 1154.94 365.232 1179.43 523.301 1074.94 573.851 C 1064.71 578.799 1053.23 579.232 1043.82 586.851 C 1045.84 598.689 1045.86 613.795 1046.73 626.017 C 1047.08 631.096 1043.02 633.414 1045.41 638.621 C 1048.91 646.356 1061.44 647.603 1064.36 655.177 C 1065.47 658.065 1066.62 659.8 1070.16 659.911 C 1096.06 660.723 1125.27 643.335 1146.08 628.631 C 1183.31 602.316 1210.27 554.506 1218.92 510.201 C 1222.99 484.811 1221 432.989 1210.75 408.273 C 1208.6 403.083 1193.04 392.285 1189.16 386.199 C 1182.38 375.559 1184.07 368.698 1186.44 357.235 L 1187.4 358.429 C 1196.39 347.594 1198.87 340.281 1215.19 338.897 C 1218.23 338.639 1219.71 338.281 1222.51 337.235 z M 1030.48 542.962 C 1071.57 540.038 1102.53 504.365 1099.62 463.268 C 1096.72 422.171 1061.07 391.2 1019.97 394.077 C 978.838 396.957 947.836 432.647 950.739 473.777 C 953.643 514.907 989.35 545.889 1030.48 542.962 z M 1135.02 900.04 C 1127.39 904.927 1119.62 912.696 1126.17 922.407 L 1129.34 927.089 C 1133.86 927.934 1137.74 929.441 1142.01 929.019 L 1144.89 928.18 C 1152.39 925.982 1151.98 922.093 1155.2 914.438 C 1150.66 904.138 1149.11 899.152 1135.88 899.993 L 1135.02 900.04 z M 1276.7 801.611 C 1289.42 800.009 1298.44 788.395 1296.83 775.671 C 1295.23 762.947 1283.61 753.932 1270.89 755.536 C 1258.17 757.14 1249.15 768.753 1250.76 781.476 C 1252.36 794.198 1263.97 803.213 1276.7 801.611 z M 1023.7 853.04 C 1014 858.666 1014.94 858.927 1009.28 868.889 C 1014.53 880.688 1012.97 882.198 1028.15 884.182 C 1034.32 882.119 1034.39 881.451 1039.39 876.935 C 1040.16 861.604 1041.54 860.741 1028.95 853.841 C 1026.78 852.65 1026.12 852.842 1023.7 853.04 z M 1029.83 714.218 C 1040.99 711.402 1047.79 700.108 1045.05 688.931 C 1042.31 677.753 1031.06 670.883 1019.86 673.549 C 1008.56 676.24 1001.61 687.619 1004.38 698.903 C 1007.14 710.188 1018.57 717.061 1029.83 714.218 z" fill="rgb(19,47,80)" transform="translate(0,0)"></path>
<path d="M 807.166 390.963 C 807.402 390.841 808.372 390.247 808.695 390.511 C 817.582 397.77 824.807 402.968 837.083 401.44 C 840.154 401.058 840.442 402.562 840.847 405.246 L 840.616 406.086 C 839.405 410.364 836.853 414.558 835.958 418.482 C 832.376 434.18 821.356 478.174 831.525 491.55 C 831.263 498.934 831.368 506.385 831.404 513.778 C 818.778 494.826 807.669 477.777 790.981 461.861 L 789.703 460.658 L 790.328 459.035 C 793.567 452.59 791.384 446.831 793.139 438.647 C 796.887 421.174 800.281 407.453 807.166 390.963 z" fill="rgb(6,185,180)" transform="translate(0,0)"></path>
<path d="M 1270.89 755.536 C 1283.61 753.932 1295.23 762.947 1296.83 775.671 C 1298.44 788.395 1289.42 800.009 1276.7 801.611 C 1263.97 803.213 1252.36 794.198 1250.76 781.476 C 1249.15 768.753 1258.17 757.14 1270.89 755.536 z" fill="rgb(6,185,180)" fill-opacity="0.972549" transform="translate(0,0)"></path>
<path d="M 1019.86 673.549 C 1031.06 670.883 1042.31 677.753 1045.05 688.931 C 1047.79 700.108 1040.99 711.402 1029.83 714.218 C 1018.57 717.061 1007.14 710.188 1004.38 698.903 C 1001.61 687.619 1008.56 676.24 1019.86 673.549 z" fill="rgb(6,185,180)" fill-opacity="0.980392" transform="translate(0,0)"></path>
<path d="M 724.069 767.649 C 723.814 761.195 728.897 757.822 725.074 753.111 C 716.687 742.774 703.68 727.772 692.522 720.698 C 690.122 719.176 664.338 733.523 659.921 733.903 C 576.266 761.483 495.796 689.309 513.971 602.898 C 519.736 574.089 536.978 548.868 561.729 533.039 C 587.892 515.782 619.955 509.923 650.53 516.814 C 705.242 529.092 742.066 581.616 736.718 635.778 C 736.033 642.715 736.414 649.974 734.506 656.777 C 731.777 666.503 724.821 675.768 722.599 685.442 C 724.073 693.101 752.412 719.427 759.779 722.948 C 761.892 723.958 791.442 724.112 793.568 721.508 C 804.806 707.749 818.381 672.559 819.924 655.276 L 820.682 647.173 C 825.079 640.891 822.244 637.437 825.807 634.533 C 841.274 662.635 856.998 636.971 862.968 648.094 C 862.305 651.105 863.02 649.747 860.18 651.949 C 860.494 671.613 851.249 698.324 843.239 716.398 C 839.013 725.933 831.728 735.416 829.228 745.675 C 827.695 751.91 836.076 756.756 836.032 762.768 C 836.035 762.41 836.506 766.367 836.467 766.069 C 832.873 768.172 820.188 766.674 817.861 770.718 C 803.647 795.413 793.804 821.928 759.946 798.576 C 753.161 793.896 748.206 769.309 730.06 778.767 C 728.451 779.443 728.238 779.48 726.451 779.637 C 722.785 775.668 724.566 773.379 724.069 767.649 z M 633.515 700.47 C 673.978 695.488 702.777 658.7 697.9 618.224 C 693.023 577.749 656.31 548.854 615.822 553.626 C 575.185 558.416 546.161 595.293 551.056 635.918 C 555.951 676.542 592.903 705.47 633.515 700.47 z M 784.114 792.116 C 793.46 790.367 796.969 779.846 796.003 771.004 C 795.935 770.386 789.213 759.983 787.244 760.461 C 783.745 760.066 780.461 760.339 777.001 760.485 C 770.603 761.854 761.823 772.232 764.076 778.505 C 768.581 791.051 773.727 791.669 784.114 792.116 z" fill="rgb(6,185,180)" transform="translate(0,0)"></path>
<path d="M 638.113 1043.51 C 629.014 1042.92 630.36 1046.85 622.727 1047.12 C 613.246 1047.45 601.21 1045.18 591.871 1045.53 C 582.194 1047.08 578.15 1066.65 574.766 1074.1 C 559.419 1107.9 526.252 1134.56 489.154 1140.21 C 458.486 1144.88 427.279 1139.51 401.991 1120.13 C 372.087 1097.22 357.143 1070.29 352.701 1032.85 C 349.269 1006.37 362.178 972.11 378.686 951.738 C 399.542 926 428.528 912.123 461.199 908.941 C 489.077 906.225 520.454 916.457 542.169 934.034 C 558.133 946.954 578.472 971.844 580.78 993.036 C 581.357 998.326 582.428 999.002 585.787 1003.58 C 602.601 1003.32 621.446 1001.43 637.217 1006.67 L 636.144 1007.96 C 638.206 1011.6 640.329 1015.21 642.511 1018.77 C 642.139 1029.45 642.844 1032.48 637.164 1041.56 C 637.707 1043.28 637.252 1042.72 638.113 1043.51 z M 475.487 1101.37 C 517.561 1097.91 548.748 1060.82 544.928 1018.78 C 541.108 976.735 503.746 945.87 461.738 950.052 C 420.24 954.184 389.83 990.995 393.604 1032.53 C 397.378 1074.06 433.924 1104.79 475.487 1101.37 z" fill="rgb(19,47,80)" transform="translate(0,0)"></path>
<path d="M 1004.57 1415.11 C 1006.22 1415.66 1005.32 1415.64 1007.25 1414.77 C 1017.33 1416.9 1025.14 1417.5 1035.38 1415.79 C 1039.65 1415.08 1043.24 1413.59 1047.38 1414.97 C 1047.34 1415.11 1047.3 1415.26 1047.26 1415.4 C 1040.39 1424.66 1049.96 1449.48 1046.7 1461.6 C 1046.39 1462.75 1045.55 1465.5 1045.16 1466.98 C 1045.85 1470.54 1048.94 1472.58 1051.75 1475.1 C 1064.42 1475.21 1087.45 1488.3 1097.41 1496.17 C 1121.45 1514.95 1136.8 1542.72 1139.91 1573.07 C 1143.32 1604.52 1133.79 1636 1113.52 1660.28 C 1108.84 1665.96 1103.56 1671.38 1097.64 1675.9 C 1017.46 1737.28 903.991 1678.5 911.414 1576.74 C 913.313 1550.71 919.653 1532.4 936.951 1511.53 C 950.333 1495.38 978.014 1476.34 999.38 1474.96 L 1007.66 1467.74 C 1007.29 1451.5 1006.81 1430.64 1004.57 1415.11 z M 1027.52 1660.56 C 1069.11 1659.31 1101.74 1624.46 1100.26 1582.88 C 1098.78 1541.3 1063.75 1508.86 1022.18 1510.57 C 980.924 1512.26 948.789 1546.96 950.259 1588.22 C 951.729 1629.48 986.253 1661.81 1027.52 1660.56 z" fill="rgb(19,47,80)" transform="translate(0,0)"></path>
<path d="M 1466.65 1006.17 C 1470.43 996.271 1472.62 986.489 1477.47 976.33 C 1520.28 887.269 1647.37 886.008 1688.94 977.393 C 1717.09 1039.27 1685.52 1109.98 1624.25 1134.21 C 1576.75 1152.99 1517.75 1136.25 1488.76 1094.15 C 1483.75 1086.87 1478.79 1080.54 1475.64 1072.28 C 1473.75 1067.41 1472.15 1062.44 1470.85 1057.38 C 1470 1054.01 1468.38 1052.04 1466.35 1049.21 C 1456.64 1049.05 1428.04 1049.26 1419.7 1047.99 C 1434.38 1046.52 1452.19 1048.39 1468.16 1047.32 C 1466.08 1032.77 1466.17 1022.33 1468.02 1007.91 C 1452.57 1007.28 1437.07 1007.86 1421.44 1007.06 C 1430.23 1004.19 1455.92 1006.23 1466.65 1006.17 z M 1591.55 1101.27 C 1633.16 1096.79 1663.29 1059.48 1658.91 1017.86 C 1654.54 976.242 1617.31 946.015 1575.68 950.284 C 1533.9 954.568 1503.54 991.964 1507.93 1033.73 C 1512.32 1075.5 1549.79 1105.77 1591.55 1101.27 z" fill="rgb(19,47,80)" transform="translate(0,0)"></path>
<path d="M 1329.66 687.652 C 1327.9 680.883 1321.2 672.221 1318.25 663.683 C 1297.92 604.691 1332.47 536.123 1392.37 518.415 C 1419.42 510.418 1458.52 513.959 1482.6 528.938 C 1507.54 544.079 1524.97 566.682 1532.54 594.376 C 1540.84 624.974 1536.57 657.617 1520.69 685.055 C 1489.6 738.266 1422.82 754.807 1369.33 726.131 C 1368.35 725.606 1365.55 722.244 1364.43 721.167 L 1363.79 719.733 C 1372.26 692.007 1355.34 683.402 1330.64 690.015 L 1329.66 687.652 z M 1433.54 700.655 C 1473.9 696.173 1503.04 659.912 1498.73 619.537 C 1494.42 579.162 1458.29 549.864 1417.89 553.997 C 1377.25 558.155 1347.74 594.56 1352.07 635.183 C 1356.4 675.806 1392.94 705.165 1433.54 700.655 z" fill="rgb(6,185,180)" transform="translate(0,0)"></path>
<path d="M 836.467 766.069 C 839.715 768.755 841.123 770.219 844.018 773.323 C 844.467 783.755 846.852 795.487 840.849 803.004 C 841.429 813.367 881.059 844.72 888.844 854.643 C 894.503 861.856 909.188 859.591 917.127 860.087 C 937.24 861.343 947.447 871.573 959.249 886.571 C 962.738 891.004 963.715 893.719 965.012 899.447 C 968.382 909.67 968.343 916.424 965.926 926.826 C 960.093 951.934 940.499 966.346 916.065 971.346 C 892.686 976.13 860.113 948.005 856.56 925.326 C 855.183 917.877 855.383 909.997 856.35 902.514 C 856.635 900.314 861.414 893.795 859.918 891.665 C 849.052 876.511 833.096 864.437 820.251 850.469 C 813.631 843.27 810.292 837.261 800.09 842.354 C 793.931 845.43 771.315 844.3 764.265 844.322 C 760.214 841.784 745.462 833.064 741.223 834.738 C 718.095 843.872 695.827 855.334 671.064 859.857 C 664.127 861.124 652.081 860.032 648.218 867.264 C 657.551 881.972 671.022 892.382 679.238 909.232 C 688.199 927.609 697.749 945.251 701.632 965.754 C 701.871 967.016 705.01 970.776 705.931 971.799 C 690.122 968.708 677.494 971.184 663.474 979.094 C 664.624 968.12 662.897 970.405 659.799 960.962 C 634.557 884.014 568.399 840.895 490.693 828.48 C 481.014 826.933 469.478 829.482 459.21 827.907 C 466.044 825.256 486.904 829.495 495.141 826.646 C 492.145 819.854 489.027 817.07 491.482 808.268 C 498.159 784.336 519.019 795.925 525.836 791.768 C 533.901 797.423 553.218 800.873 563.239 805.659 C 572.388 810.028 586.345 817.341 595.715 820.137 C 626.071 828.935 658.735 821.019 688.431 813.309 C 698.747 810.631 706.067 804.046 714.443 802.759 C 717.838 793.652 722.607 777.108 724.069 767.649 C 724.566 773.379 722.785 775.668 726.451 779.637 C 728.238 779.48 728.451 779.443 730.06 778.767 C 748.206 769.309 753.161 793.896 759.946 798.576 C 793.804 821.928 803.647 795.413 817.861 770.718 C 820.188 766.674 832.873 768.172 836.467 766.069 z M 896.472 907.714 C 896.357 924.74 898.846 930.734 917.924 927.728 C 923.069 925.784 929.423 919.609 927.653 913.995 C 923.844 901.915 916.868 899.817 906.173 900.041 C 902.775 902.381 899.408 904.808 896.472 907.714 z" fill="rgb(19,47,80)" transform="translate(0,0)"></path>
<path d="M 1618.62 498.911 C 1626.07 505.234 1635.82 527.219 1639.14 534.841 C 1676.37 620.467 1655.95 717.425 1593.92 785.687 C 1594.2 786.541 1594.48 787.395 1594.76 788.249 C 1598.82 791.081 1607.56 789.59 1612.96 790.493 C 1623.51 792.256 1654.03 802.451 1661.83 800.916 C 1676.57 798.018 1679.93 793.021 1695.39 802.382 C 1702.45 806.652 1706.68 812.075 1709.75 819.605 C 1710.8 822.197 1712.03 824.63 1712.53 827.397 C 1709.93 862.471 1692.43 855.384 1689.1 863.71 C 1683.23 864.083 1677.39 864.131 1671.51 864.239 L 1664.05 860.258 C 1654.97 855.341 1649.81 843.391 1640.83 838.244 C 1636.02 835.487 1627.28 834.848 1621.78 833.393 C 1586.51 826.133 1561.83 826.793 1527.01 836.221 C 1480.1 848.923 1438.72 878.804 1413.91 920.883 C 1406.65 933.204 1391.31 962.987 1392.43 976.963 C 1388.11 978.367 1384.69 976.09 1380.37 974.859 C 1366.14 970.8 1355.31 971.397 1341.13 974.952 L 1344.36 970.15 C 1348.27 964.327 1351.95 952.59 1354.6 945.811 C 1362.52 924.965 1373.06 906.417 1386.39 888.572 C 1391.2 882.14 1399.98 873.079 1402.7 866.061 C 1406.91 864.766 1424.45 846.662 1430.56 842.067 C 1439.64 835.243 1443.81 830.895 1454.59 824.927 C 1448.66 824.962 1442.24 825.304 1436.5 823.963 C 1463.07 823.982 1467.22 814.579 1489.34 806.208 C 1516.15 796.936 1530.7 790.098 1551.52 770.878 C 1595.72 730.091 1618.18 682.599 1616.89 622.266 C 1615.95 577.747 1607.11 557.66 1585.43 519.085 C 1586.56 519.275 1585.84 519.237 1587.59 518.776 C 1593.28 501.576 1600.04 497.055 1617.9 501.053 L 1618.62 498.911 z" fill="rgb(19,47,80)" transform="translate(0,0)"></path>
<path d="M 453.431 472.866 L 458.441 470.041 L 458.602 471.743 C 459.757 483.407 463.552 488.306 474.254 493.638 C 478.381 493.525 484.247 492.772 487.603 494.306 C 452.958 530.531 433.837 578.858 434.317 628.98 C 435.649 681.212 457.342 730.856 494.765 767.317 C 505.102 777.242 519.351 785.483 525.836 791.768 C 519.019 795.925 498.159 784.336 491.482 808.268 C 489.027 817.07 492.145 819.854 495.141 826.646 C 486.904 829.495 466.044 825.256 459.21 827.907 C 450.23 828.519 414.367 834.144 408.089 838.577 C 407.463 836.861 407.441 836.953 407.658 835.003 C 409.568 817.847 404.853 815.738 397.488 804.444 C 397.783 803.528 399.968 801.757 400.598 801.161 C 410.944 794.53 444.245 792.545 456.74 790.576 L 457.621 788.174 C 456.485 780.647 453.981 780.553 449.481 775.426 C 414.636 735.722 389.981 670.426 392.63 617.804 C 394.951 571.678 411.844 527.449 438.505 491.011 C 442.703 485.274 448.441 477.231 453.431 472.866 z" fill="rgb(6,185,180)" transform="translate(0,0)"></path>
<path d="M 1689.1 863.71 C 1692.43 855.384 1709.93 862.471 1712.53 827.397 L 1713.27 828.15 C 1724.73 839.54 1737.94 849.007 1749.36 860.867 C 1840.32 955.276 1839 1103.23 1744.23 1194.51 C 1739.65 1198.93 1735.33 1203.75 1730.49 1207.97 C 1722.71 1214.76 1716.53 1216.26 1710.42 1225.02 C 1710.29 1223.77 1708.63 1209.47 1708.62 1209.59 C 1709.02 1200.57 1686.15 1187.31 1686.76 1188.61 C 1686.83 1188.31 1686.74 1188.51 1687.22 1187.96 L 1689.06 1187.86 C 1689.99 1187.82 1691.84 1187.87 1692.64 1187.33 C 1772.02 1134.25 1800.58 1028.29 1758.24 941.642 C 1744.61 913.812 1724.62 889.58 1699.88 870.908 C 1695.46 867.59 1694.42 865.534 1689.1 863.71 z" fill="rgb(6,185,180)" transform="translate(0,0)"></path>
<path d="M 831.339 1715.44 L 831.4 1714.86 C 833.105 1713.32 841.077 1711.7 844.078 1711.17 C 855.779 1709.1 858.751 1694.72 863.425 1690.79 L 864.844 1692.74 C 895.003 1737.02 941.536 1767.49 994.181 1777.42 C 1042.21 1786.72 1094.18 1772.68 1134.47 1745.82 C 1147.36 1737.23 1179.61 1707.93 1184.68 1694.91 C 1186.86 1696.15 1188.11 1698.15 1189.24 1700.37 C 1196.21 1714.09 1211.07 1710.81 1218.68 1715.27 C 1216.52 1717.67 1213.03 1722.34 1211.03 1724.97 C 1172.84 1775.66 1115.95 1808.96 1053.04 1817.42 C 987.56 1826.24 919.771 1803.07 871.406 1758.1 C 865.625 1752.72 833.255 1716.63 831.339 1715.44 z" fill="rgb(6,185,180)" transform="translate(0,0)"></path>
<path d="M 1077.33 238.098 L 1079.22 238.71 C 1081.53 239.441 1082.4 239.527 1084.62 240.024 C 1120.01 247.954 1157.89 269.833 1184.15 294.209 C 1197.97 307.032 1210.58 322.943 1222.51 337.235 C 1219.71 338.281 1218.23 338.639 1215.19 338.897 C 1198.87 340.281 1196.39 347.594 1187.4 358.429 L 1186.44 357.235 C 1181.27 343.578 1149.84 314.342 1137.51 305.652 C 1126.99 298.384 1115.81 292.119 1104.12 286.939 C 1058.79 266.665 1007.27 265.129 960.808 282.666 C 928.378 295.164 899.074 316.361 877.341 343.515 C 874.021 347.663 867.724 354.27 865.827 359.074 C 863.528 359.03 862.639 358.972 861.532 356.787 C 856.99 347.821 849.419 341.797 839.495 339.966 C 835.693 339.265 835.222 339.922 832.09 337.775 C 834.541 335.12 834.96 332.794 836.867 330.117 C 867.027 287.79 921.454 248.88 972.809 238.206 C 990.455 239.292 1011.57 237.722 1029.5 237.836 C 1044.08 237.929 1063.14 239.266 1077.33 238.098 z" fill="rgb(6,185,180)" transform="translate(0,0)"></path>
<path d="M 663.474 979.094 C 677.494 971.184 690.122 968.708 705.931 971.799 C 716.832 973.177 728.714 981.516 735.176 990.221 C 738.833 995.146 740.579 1000.47 744.355 1003.89 C 749.913 1006.03 785.205 1004.58 793.974 1004.57 C 788.187 1010.65 786.356 1013.35 784.866 1021.85 C 784.912 1026.11 784.997 1028.04 785.575 1032.23 C 787.356 1035.59 789.292 1039.47 791.237 1042.68 C 782.97 1043.48 754.131 1043.47 750.004 1044.45 C 738.081 1052.06 737.841 1059.31 728.239 1069.15 C 721.636 1075.92 706.731 1077.84 701.841 1084.47 C 695.393 1093.21 692.974 1111.03 687.967 1121.01 C 676.47 1143.94 664.315 1162.18 648.461 1181.85 L 646.757 1181.57 C 642.575 1160.55 640.07 1160.87 620.299 1158.19 C 619.974 1157.99 619.648 1157.78 619.322 1157.57 C 625.692 1151.91 629.643 1143.7 634.952 1137.58 C 650.767 1119.35 654.264 1096.09 664.599 1076.34 C 660.418 1070.41 653.429 1063.53 648.709 1057.45 C 644.572 1052.11 642.914 1047.86 638.113 1043.51 C 637.252 1042.72 637.707 1043.28 637.164 1041.56 C 642.844 1032.48 642.139 1029.45 642.511 1018.77 C 640.329 1015.21 638.206 1011.6 636.144 1007.96 L 637.217 1006.67 C 643.937 1000.49 648.326 990.19 656.602 984.823 C 659.202 983.137 660.556 981.896 662.776 979.772 L 663.474 979.094 z M 676.933 1038.23 C 686.055 1042.93 684.509 1043.51 694.764 1044.19 C 698.614 1042.37 703.596 1039.2 704.405 1035.09 C 704.525 1034.49 706.203 1032.02 706.393 1031.51 C 706.375 1031.56 708.216 1028.2 708.193 1028.25 C 706.003 1023.61 705.009 1021.69 703.358 1016.99 C 697.783 1012.71 695.655 1009.72 688.822 1009.64 C 675.482 1018.81 673.25 1022.48 676.933 1038.23 z" fill="rgb(6,185,180)" transform="translate(0,0)"></path>
<path d="M 688.822 1009.64 C 695.655 1009.72 697.783 1012.71 703.358 1016.99 C 705.009 1021.69 706.003 1023.61 708.193 1028.25 C 708.216 1028.2 706.375 1031.56 706.393 1031.51 C 706.203 1032.02 704.525 1034.49 704.405 1035.09 C 703.596 1039.2 698.614 1042.37 694.764 1044.19 C 684.509 1043.51 686.055 1042.93 676.933 1038.23 C 673.25 1022.48 675.482 1018.81 688.822 1009.64 z" fill="rgb(254,254,254)" fill-opacity="0.0117647" transform="translate(0,0)"></path>
<path d="M 1341.13 974.952 C 1355.31 971.397 1366.14 970.8 1380.37 974.859 C 1384.69 976.09 1388.11 978.367 1392.43 976.963 C 1394.4 979.869 1395.45 981.394 1398.18 983.687 C 1406.49 990.685 1409.93 1004.99 1421.44 1007.06 C 1437.07 1007.86 1452.57 1007.28 1468.02 1007.91 C 1466.17 1022.33 1466.08 1032.77 1468.16 1047.32 C 1452.19 1048.39 1434.38 1046.52 1419.7 1047.99 C 1408.65 1051.79 1404.14 1065.86 1394.81 1073.03 C 1392.37 1074.91 1391.45 1076.36 1389.82 1078.83 C 1385.89 1077.43 1379.03 1080.74 1373.84 1081.57 C 1362.39 1083.41 1357.47 1083.16 1346.26 1081.27 L 1345.83 1080.78 C 1321.08 1073.81 1321 1059.98 1308.22 1049.2 C 1303.02 1044.81 1254.43 1044.98 1245.25 1047.67 C 1245.41 1036.93 1250.42 1025.78 1246.87 1014.59 C 1245.6 1010.59 1243.29 1004.18 1244.16 1000.54 C 1245.78 1001.46 1247.53 1002.13 1249.35 1002.53 C 1255.36 1003.94 1303.24 1005.84 1310.73 1002.69 C 1313.49 1001.53 1322.3 988.327 1326.03 984.996 C 1330.58 980.942 1335.85 978.097 1341.13 974.952 z M 1348.53 1038.75 C 1354.67 1041.6 1355.8 1042.91 1362.37 1043.74 C 1377.01 1040.48 1375.96 1030.71 1375.6 1019.03 C 1369.89 1013.56 1367 1010.13 1359.57 1008.85 L 1357.85 1009.81 C 1346.3 1016.01 1339.77 1026.82 1348.53 1038.75 z" fill="rgb(6,185,180)" transform="translate(0,0)"></path>
<path d="M 1359.57 1008.85 C 1367 1010.13 1369.89 1013.56 1375.6 1019.03 C 1375.96 1030.71 1377.01 1040.48 1362.37 1043.74 C 1355.8 1042.91 1354.67 1041.6 1348.53 1038.75 C 1339.77 1026.82 1346.3 1016.01 1357.85 1009.81 L 1359.57 1008.85 z" fill="rgb(254,254,254)" fill-opacity="0.0117647" transform="translate(0,0)"></path>
<path d="M 1289.21 440.52 C 1309.5 420.159 1366.22 400.61 1394.92 397.317 C 1405.4 396.116 1416.18 395.834 1426.82 395.815 C 1488.22 395.227 1547.22 419.632 1590.27 463.422 C 1599.93 473.061 1612.95 486.48 1618.62 498.911 L 1617.9 501.053 C 1600.04 497.055 1593.28 501.576 1587.59 518.776 C 1585.84 519.237 1586.56 519.275 1585.43 519.085 C 1573.02 498.548 1548.03 476.15 1527.47 464.106 C 1458.81 423.892 1382.15 426.711 1316.07 470.478 C 1310.95 469.823 1316.21 459.254 1311.17 452.051 C 1303.63 441.288 1297.19 445.149 1289.21 440.52 z" fill="rgb(6,185,180)" transform="translate(0,0)"></path>
<path d="M 342.082 828.367 C 344.796 830.489 344.279 832.214 345.076 835.991 C 346.877 844.52 351.814 851.509 358.894 856.531 C 359.685 857.092 361.374 857.893 361.86 858.592 C 361.824 859.824 360.743 860.929 360.116 861.918 L 358.961 863.123 C 349.472 872.94 338.16 878.771 327.283 890.367 C 291.994 927.989 273.039 975.732 272.652 1027.19 C 272.475 1050.64 280.216 1082.8 289.923 1103.47 C 291.484 1106.8 292.66 1111.16 294.439 1114.05 L 293.363 1115.49 C 286.773 1113.76 278.265 1112.58 272.048 1116.16 C 265.615 1119.86 264.842 1128.22 261.373 1133.91 C 260.102 1130.06 252.909 1115.56 250.567 1109.2 C 238.315 1075.92 235.514 1051.92 235.834 1017.28 C 236.912 960.156 259.963 905.64 300.195 865.066 C 313.587 851.584 329.513 841.141 342.082 828.367 z" fill="rgb(6,185,180)" transform="translate(0,0)"></path>
<path d="M 744.355 1003.89 C 752.083 1003.49 802.368 1003.93 803.598 1003.35 C 820.102 995.589 821.102 972.192 853.265 970.569 C 906.933 967.861 934.533 1025.18 899.597 1065.31 C 879.328 1088.03 841.757 1088.54 820.462 1067.2 C 813.95 1060.73 811.879 1051.32 805.797 1043.57 C 797.717 1044.11 755.812 1046.33 750.004 1044.45 C 754.131 1043.47 782.97 1043.48 791.237 1042.68 C 789.292 1039.47 787.356 1035.59 785.575 1032.23 L 786.699 1031.94 C 795.154 1029.85 796.724 1021.89 784.866 1021.85 C 786.356 1013.35 788.187 1010.65 793.974 1004.57 C 785.205 1004.58 749.913 1006.03 744.355 1003.89 z M 859.487 1040.45 L 861.5 1040.2 C 881.244 1037.88 874.137 1008.25 857.424 1010.94 C 848.262 1014.26 840.215 1018.54 843.391 1030.01 C 846.446 1041.05 849.856 1039.39 859.487 1040.45 z" fill="rgb(19,47,80)" transform="translate(0,0)"></path>
<path d="M 1007.32 1304.2 C 1007.6 1299.86 1006.67 1292.84 1006.74 1287.4 C 1006.89 1275.17 1007.23 1262.82 1006.59 1250.64 C 1005.63 1232.48 998.816 1235.11 986.204 1223.99 C 976.9 1216.01 972.773 1203.14 971.646 1191.4 C 966.661 1139.45 1027.47 1111.24 1065.09 1146.17 C 1087.33 1166.82 1086.15 1208.17 1062.44 1226.99 C 1058.71 1229.95 1053.31 1231.81 1050.07 1235.5 C 1045.29 1241.14 1046.87 1257.9 1047.14 1265.11 C 1044.56 1261.63 1045.02 1259.61 1044.87 1255.29 C 1040.75 1256.06 1039.49 1258.81 1036.12 1260.09 C 1024.99 1264.33 1017.07 1260.7 1008.63 1254.08 C 1008.41 1261.35 1008.88 1301.72 1007.32 1304.2 z M 1027.69 1200.65 L 1029.59 1200.32 C 1042.5 1198.2 1039.99 1189.93 1039.48 1178.65 C 1035.27 1174.74 1030.66 1170.82 1024.88 1169.95 C 1017.42 1174.42 1010.37 1177.98 1011.9 1188 C 1013.64 1199.44 1018 1199.2 1027.69 1200.65 z" fill="rgb(19,47,80)" transform="translate(0,0)"></path>
<path d="M 1024.88 1169.95 C 1030.66 1170.82 1035.27 1174.74 1039.48 1178.65 C 1039.99 1189.93 1042.5 1198.2 1029.59 1200.32 L 1027.69 1200.65 C 1018 1199.2 1013.64 1199.44 1011.9 1188 C 1010.37 1177.98 1017.42 1174.42 1024.88 1169.95 z" fill="rgb(254,254,254)" fill-opacity="0.00784314" transform="translate(0,0)"></path>
<path d="M 1245.25 1047.67 C 1239.84 1062.49 1222.2 1075.91 1207.59 1080.6 C 1195.04 1084.63 1182.56 1085.02 1170.83 1078.26 C 1157.23 1070.43 1144.23 1057.94 1139.79 1042.56 C 1134.89 1028.17 1137.42 1011.44 1145.19 998.802 C 1154.01 984.468 1169.68 971.475 1186.77 969.892 C 1192.56 969.356 1203.38 971.254 1209.28 972.594 C 1221.47 975.36 1233.65 984.506 1240 995.155 C 1241.68 997.957 1241.84 998.282 1244.16 1000.54 C 1243.29 1004.18 1245.6 1010.59 1246.87 1014.59 C 1250.42 1025.78 1245.41 1036.93 1245.25 1047.67 z M 1181.89 1039.09 C 1189.6 1042.53 1189.59 1044.1 1197.54 1040.92 C 1203.7 1038.31 1202.8 1038.53 1207.46 1033.54 C 1207.52 1028.5 1207.57 1024.38 1207.25 1019.3 C 1198.52 1013.69 1197.4 1011.11 1186.78 1012 C 1173.65 1024.37 1174.17 1024.12 1181.89 1039.09 z" fill="rgb(19,47,80)" transform="translate(0,0)"></path>
<path d="M 1308.06 831.643 C 1313.4 826.717 1322.01 818.977 1325.79 813.078 C 1328.55 808.782 1330.34 804.068 1333.5 799.321 L 1335.15 799.339 C 1349.72 810.757 1391.21 822.178 1410.49 823.825 C 1418.37 824.499 1429.07 823.508 1436.5 823.963 C 1442.24 825.304 1448.66 824.962 1454.59 824.927 C 1443.81 830.895 1439.64 835.243 1430.56 842.067 C 1424.45 846.662 1406.91 864.766 1402.7 866.061 C 1397.39 862.548 1373.04 856.843 1365.64 855.782 C 1353.23 854.001 1315.13 831.782 1308.06 831.643 z" fill="rgb(6,185,180)" transform="translate(0,0)"></path>
<path d="M 342.082 828.367 C 343.53 823.74 348.86 813.384 351.3 809.551 C 357.585 799.674 376.158 792.373 387.043 799.05 C 389.685 800.671 397.246 801.754 400.598 801.161 C 399.968 801.757 397.783 803.528 397.488 804.444 C 404.853 815.738 409.568 817.847 407.658 835.003 C 407.441 836.953 407.463 836.861 408.089 838.577 C 407.215 841.366 405.861 840.674 404.221 844.952 C 401.602 851.786 393.375 856.291 388.011 860.23 C 382.273 860.232 364.695 859.858 360.116 861.918 C 360.743 860.929 361.824 859.824 361.86 858.592 C 361.374 857.893 359.685 857.092 358.894 856.531 C 351.814 851.509 346.877 844.52 345.076 835.991 C 344.279 832.214 344.796 830.489 342.082 828.367 z" fill="rgb(19,47,80)" transform="translate(0,0)"></path>
<path d="M 1668.05 1187.55 C 1672.49 1187.4 1683.23 1186.72 1687.22 1187.96 C 1686.74 1188.51 1686.83 1188.31 1686.76 1188.61 C 1686.15 1187.31 1709.02 1200.57 1708.62 1209.59 C 1708.63 1209.47 1710.29 1223.77 1710.42 1225.02 C 1705.85 1230.77 1710.69 1234.47 1700.33 1242.6 C 1693.25 1248.16 1694.01 1246.98 1686.17 1250.51 C 1676.2 1255 1670.64 1250.67 1660.97 1247.84 C 1653.6 1239.43 1647.4 1235.38 1646.11 1222.99 C 1645.61 1218.16 1648.1 1213.62 1643.22 1212.57 C 1644.63 1210.56 1646.32 1210.57 1647.25 1207.94 C 1649.45 1201.84 1656.68 1195.34 1662 1191.83 C 1664.51 1190.17 1665.37 1189.65 1668.05 1187.55 z" fill="rgb(19,47,80)" transform="translate(0,0)"></path>
<path d="M 1643.22 1212.57 C 1648.1 1213.62 1645.61 1218.16 1646.11 1222.99 C 1647.4 1235.38 1653.6 1239.43 1660.97 1247.84 C 1657.06 1248.44 1637.07 1254.42 1630.98 1255.95 C 1622.13 1258.19 1599.67 1260.4 1594.32 1262.21 L 1591.68 1264.04 C 1587.32 1263.13 1572.15 1247.62 1567.11 1243.36 C 1566.65 1228.09 1564.05 1231.28 1556.63 1221.01 L 1555.74 1219.75 C 1563.32 1219.97 1575.88 1222.79 1582.57 1222.56 C 1602.24 1221.86 1624.95 1219.59 1643.22 1212.57 z" fill="rgb(6,185,180)" transform="translate(0,0)"></path>
<path d="M 807.166 390.963 C 806.994 382.615 801.339 380.712 802.779 368.503 C 804.601 353.066 806.514 351.094 819.295 342.517 C 825.862 338.109 826.065 341.025 832.09 337.775 C 835.222 339.922 835.693 339.265 839.495 339.966 C 849.419 341.797 856.99 347.821 861.532 356.787 C 862.639 358.972 863.528 359.03 865.827 359.074 C 863.797 368.616 867.473 370.026 864.555 380.45 C 860.657 394.373 847.025 395.914 840.847 405.246 C 840.442 402.562 840.154 401.058 837.083 401.44 C 824.807 402.968 817.582 397.77 808.695 390.511 C 808.372 390.247 807.402 390.841 807.166 390.963 z" fill="rgb(19,47,80)" transform="translate(0,0)"></path>
<path d="M 1207.29 1649.06 C 1209.16 1651.55 1231.74 1651.36 1236.05 1660.94 C 1237.45 1664.07 1239.42 1665.45 1242.79 1663.93 C 1245.34 1677.27 1247.45 1695.9 1236.34 1705.39 C 1229.05 1711.63 1226.7 1711.55 1218.68 1715.27 C 1211.07 1710.81 1196.21 1714.09 1189.24 1700.37 C 1188.11 1698.15 1186.86 1696.15 1184.68 1694.91 C 1183.24 1688.79 1183.81 1677.93 1183.75 1671.04 C 1184.04 1670.7 1191.73 1661.2 1191.57 1661.62 C 1193.7 1656.03 1204.94 1651.92 1207.29 1649.06 z" fill="rgb(19,47,80)" transform="translate(0,0)"></path>
<path d="M 972.809 238.206 C 979.61 235.548 992.958 235.318 1001.5 233.769 C 1019 230.593 1042.79 231.222 1060 235.552 C 1066.43 237.135 1069.45 234.537 1077.33 238.098 C 1063.14 239.266 1044.08 237.929 1029.5 237.836 C 1011.57 237.722 990.455 239.292 972.809 238.206 z" fill="rgb(6,185,180)" fill-opacity="0.980392" transform="translate(0,0)"></path>
<path d="M 784.866 1021.85 C 796.724 1021.89 795.154 1029.85 786.699 1031.94 L 785.575 1032.23 C 784.997 1028.04 784.912 1026.11 784.866 1021.85 z" fill="rgb(19,47,80)" fill-opacity="0.933333" transform="translate(0,0)"></path>
<metadata></metadata></svg>