<svg xmlns="http://www.w3.org/2000/svg" height="2048" preserveAspectRatio="none" style="display: block;" version="1.1" viewBox="0 0 2048 2048" width="2048">
<path d="M 1076.12 235.326 C 1084.7 242.451 1094.56 248.103 1103.72 254.507 C 1129.3 272.387 1155.85 288.965 1181.83 306.217 L 1405.6 455.832 L 1472.99 500.739 C 1479.54 505.082 1490.85 511.166 1496.31 515.283 C 1424 627.468 1345.94 737.167 1273.28 849.261 C 1271.91 851.367 1269.52 857.119 1269.08 859.571 C 1288.32 864.149 1329.33 856.513 1349.98 861.093 C 1356.22 862.477 1353.35 881.717 1353.39 886.724 L 1353.57 936.793 C 1353.59 946.559 1355.31 967.022 1349.52 974.141 C 1340.47 975.19 1322.86 974.533 1313.04 974.512 L 1242.21 974.423 L 1005.4 974.369 C 914.87 975.045 824.335 975.033 733.803 974.332 C 716.137 974.272 696.995 975.087 679.582 975.09 C 674.335 975.091 676.078 921.268 676.396 915.617 C 677.206 901.246 673.653 876.814 676.675 864.03 C 681.772 858.058 704.477 860.758 712.491 860.632 C 739.071 860.29 765.655 859.8 792.24 860.089 C 799.896 860.172 808.382 860.395 815.856 858.888 C 816.608 855.247 816.174 855.768 813.358 851.515 C 812.852 850.756 812.339 850.001 811.821 849.25 C 803.583 846.1 713.313 779.001 708.158 771.658 C 716.979 764.018 731.931 740.834 738.937 730.306 L 776.397 673.808 L 1005.55 336.086 L 1049.21 272.119 C 1056.14 262.014 1067.65 242.135 1076.12 235.326 z M 1127.2 859.85 C 1130.52 855.901 1133.34 849.33 1136.5 844.878 C 1174.26 791.75 1210 736.799 1246.73 682.965 L 1305.97 595.015 C 1314.25 582.78 1323.33 570.666 1331.31 558.248 C 1332.94 555.719 1332.44 553.289 1332.06 550.372 C 1326.81 545.099 1313.34 536.454 1306.66 531.855 C 1286.23 517.864 1265.68 504.047 1245.01 490.407 C 1202.34 461.866 1160 432.412 1117.25 403.976 C 1114.13 401.903 1108.04 398.059 1104.4 398.872 C 1098.49 405.515 1089.41 419.869 1083.97 427.986 L 1049.55 479.232 L 911.25 684.604 C 906.96 690.888 873.133 738.734 872.876 742.079 C 872.635 745.197 873.367 748.029 875.732 750.199 C 883.519 757.345 902.591 768.304 912.185 774.965 C 938.911 793.517 965.118 812.771 991.999 831.122 C 1002.22 838.101 1017.48 845.887 1025.52 855.095 C 1027.64 857.531 1028.87 858.248 1031.92 859.348 C 1054.91 861.283 1078.02 860.223 1101.03 860.186 C 1106.32 860.177 1123 859.426 1127.2 859.85 z" fill="rgb(5,196,172)" transform="translate(0,0)"></path>
<path d="M 1031.92 859.348 C 1028.87 858.248 1027.64 857.531 1025.52 855.095 C 1017.48 845.887 1002.22 838.101 991.999 831.122 C 965.118 812.771 938.911 793.517 912.185 774.965 C 902.591 768.304 883.519 757.345 875.732 750.199 C 873.367 748.029 872.635 745.197 872.876 742.079 C 873.133 738.734 906.96 690.888 911.25 684.604 L 1049.55 479.232 L 1083.97 427.986 C 1089.41 419.869 1098.49 405.515 1104.4 398.872 C 1108.04 398.059 1114.13 401.903 1117.25 403.976 C 1160 432.412 1202.34 461.866 1245.01 490.407 C 1265.68 504.047 1286.23 517.864 1306.66 531.855 C 1313.34 536.454 1326.81 545.099 1332.06 550.372 C 1332.44 553.289 1332.94 555.719 1331.31 558.248 C 1323.33 570.666 1314.25 582.78 1305.97 595.015 L 1246.73 682.965 C 1210 736.799 1174.26 791.75 1136.5 844.878 C 1133.34 849.33 1130.52 855.901 1127.2 859.85 C 1123 859.426 1106.32 860.177 1101.03 860.186 C 1078.02 860.223 1054.91 861.283 1031.92 859.348 z" fill="rgb(254,254,254)" fill-opacity="0.0117647" transform="translate(0,0)"></path>
<path d="M 1269.08 859.571 C 1288.32 864.149 1329.33 856.513 1349.98 861.093 C 1356.22 862.477 1353.35 881.717 1353.39 886.724 L 1353.57 936.793 C 1353.59 946.559 1355.31 967.022 1349.52 974.141 C 1340.47 975.19 1322.86 974.533 1313.04 974.512 L 1242.21 974.423 L 1005.4 974.369 C 914.87 975.045 824.335 975.033 733.803 974.332 C 716.137 974.272 696.995 975.087 679.582 975.09 C 674.335 975.091 676.078 921.268 676.396 915.617 C 677.206 901.246 673.653 876.814 676.675 864.03 C 681.772 858.058 704.477 860.758 712.491 860.632 C 739.071 860.29 765.655 859.8 792.24 860.089 C 799.896 860.172 808.382 860.395 815.856 858.888 L 814.676 860.401 C 820.906 862.024 1025.03 862.839 1030.87 860.024 C 1031.24 859.842 1031.57 859.573 1031.92 859.348 C 1054.91 861.283 1078.02 860.223 1101.03 860.186 C 1106.32 860.177 1123 859.426 1127.2 859.85 C 1137.22 864.706 1237.57 858.923 1254.18 861.323 C 1256.34 861.635 1268.04 861.814 1269.08 859.571 z" fill="rgb(17,14,91)" transform="translate(0,0)"></path>
<path d="M 709.4 652.5 C 718.125 652.103 738.953 648.564 742.756 656.625 C 742.293 664.927 733.645 670.711 729.185 677.177 C 709.485 705.737 690.977 735.073 671.636 763.856 C 669.78 766.565 666.738 767.75 663.527 767.985 C 649.422 769.021 634.502 768.38 620.345 768.348 L 503.549 768.232 C 487.53 768.229 471.437 768.11 455.418 768.382 C 450.109 768.472 444.374 769.103 441.2 773.669 L 440.996 962.62 C 440.942 980.405 440.988 998.189 441.135 1015.97 C 441.213 1023.52 440.789 1036.22 442.168 1043.11 C 450.237 1046.25 693.756 1044.35 721.696 1044.37 L 1319.61 1044.18 L 1504.82 1044.29 L 1554.01 1044.44 C 1559.41 1044.49 1589.45 1045.66 1590.15 1042.12 C 1591.71 1034.15 1590.67 1005.78 1590.58 997.071 C 1590.07 945.195 1589.91 893.316 1590.11 841.437 C 1590.16 828.668 1591.66 781.088 1590.23 772.336 C 1584.7 765.943 1554.64 768.276 1545.13 768.314 L 1444.71 768.286 C 1435.75 768.285 1399.69 770.807 1395.37 764.679 C 1402.1 752.963 1410.43 744.52 1417.4 733.843 C 1434.23 708.094 1452.13 682.722 1468.95 657.042 C 1472.49 655.583 1477.1 653.652 1480.95 653.556 C 1503.34 653.009 1524.97 653.041 1547.49 653.436 C 1585.8 654.107 1625.8 650.369 1663.73 656.236 C 1670.99 657.36 1680.46 664.266 1686.11 668.914 C 1696.63 681.419 1707.7 693.87 1707.97 711.047 C 1708.36 736.471 1708.09 762.503 1708.03 787.925 L 1707.85 939.465 L 1708.01 1049.3 C 1708.06 1078.26 1713.28 1116.95 1692.68 1139.67 C 1682.48 1150.92 1666.6 1160.53 1650.98 1160.58 C 1622.75 1160.67 1594.48 1160.57 1566.23 1160.55 L 1400.21 1160.61 L 884.288 1160.59 L 532.878 1160.44 L 431.737 1160.5 C 412.65 1160.52 392.988 1160.77 373.962 1159.7 C 362.914 1159.09 352.23 1151.56 344.29 1144.37 C 330.932 1132.28 324.066 1114.82 323.939 1096.81 C 323.738 1068.28 323.882 1039.3 323.885 1010.67 L 323.881 841.455 L 323.89 752.616 C 323.895 726.782 320.208 703.52 335.918 680.995 C 351.106 659.216 371.176 653.516 397.049 653.139 C 500.899 651.626 605.612 654.886 709.4 652.5 z" fill="rgb(17,14,91)" transform="translate(0,0)"></path>
<path d="M 491.381 1200.56 C 497.782 1199.65 505.701 1198.93 505.824 1208.47 C 505.949 1218.16 505.647 1227.91 505.688 1237.63 L 505.78 1308.75 L 505.473 1520.9 C 505.386 1555.85 503.618 1596.32 508.2 1630.57 C 511.897 1651.71 530.969 1676.03 548.001 1687.75 C 580.327 1709.98 621.94 1704.64 659.454 1704.58 L 769.929 1704.56 L 1133.45 1704.42 L 1351.51 1704.4 L 1407.77 1704.49 C 1418.88 1704.51 1436.82 1705.07 1447.55 1703.05 C 1479.81 1697.03 1507.21 1676.23 1519.9 1645.7 C 1529.32 1623.06 1527.68 1599.1 1527.65 1575.18 L 1527.64 1505.03 L 1527.68 1305.37 L 1527.65 1247.72 C 1527.57 1236.73 1526.87 1225.39 1527.51 1214.44 C 1527.72 1210.83 1528.08 1204.89 1530.47 1202.03 C 1531.33 1201.01 1626.45 1200.46 1636.81 1200.36 C 1639.63 1200.33 1641.09 1200.16 1643.16 1202.15 C 1645.41 1211.23 1644.42 1258.07 1644.41 1270.08 L 1644.32 1416.25 L 1644.4 1563.23 C 1644.41 1604.56 1647.82 1635.42 1634.31 1675.54 C 1605.95 1759.83 1530.39 1818.02 1441.48 1822.72 C 1425.01 1823.59 1409.39 1823.65 1392.99 1823.67 L 1320.54 1823.74 L 1080.41 1823.64 L 756.682 1823.81 L 654.366 1823.8 C 634.88 1823.81 614.514 1824.46 595.149 1823.4 C 515.086 1819.02 443.377 1772.91 408.725 1700.11 C 388.621 1657.87 387.829 1628.52 387.837 1584.15 L 387.883 1511.84 L 387.905 1275.96 C 387.909 1259.18 386.86 1223.39 388.557 1205.41 C 389.873 1202.94 395.391 1201.13 397.502 1201.12 C 428.718 1200.91 460.184 1202.97 491.381 1200.56 z" fill="rgb(17,14,91)" transform="translate(0,0)"></path>
<path d="M 1413.21 823.318 C 1449.53 825.311 1486.38 822.395 1522.75 823.783 C 1526.7 823.934 1530.32 824.807 1533.77 826.715 C 1539.27 838.49 1532.28 953.245 1535.57 974.31 C 1536.38 979.524 1532.54 982.881 1527.2 983.519 C 1524.13 983.03 1521.07 982.68 1518.06 982.306 C 1509.44 981.249 1492.02 988.783 1491.92 974.2 C 1491.75 942.107 1492.33 910.184 1491.64 878.044 C 1491.56 859.877 1475.33 865.48 1462.56 864.894 C 1447.68 864.197 1423.67 868.09 1410.23 863.52 C 1407.77 862.684 1404.79 829.599 1413.21 823.318 z" fill="rgb(5,196,172)" fill-opacity="0.988235" transform="translate(0,0)"></path>
<path d="M 499.195 822.957 C 536.909 825.109 575.652 823.037 613.472 823.687 C 616.61 823.741 616.457 824.049 618.754 825.711 C 619.422 827.082 622.144 858.537 621.945 861.017 C 612.639 872.247 552.692 858.291 539.668 869.378 C 535.627 872.819 537.138 894.469 537.119 900.75 C 536.908 924.579 536.855 948.388 537.244 972.07 C 535.969 988.692 528.942 981.215 517.992 982.525 C 512.602 983.17 508.295 984.33 502.793 983.718 C 495.798 982.939 495.713 978.856 495.738 973.049 C 495.943 925.036 495.628 876.993 495.987 828.987 C 496.007 826.319 497.529 824.73 499.195 822.957 z M 604.335 854.82 C 611.819 850.955 607.899 847.34 601.897 845.386 C 596.321 850.442 595.67 852.694 604.335 854.82 z" fill="rgb(5,196,172)" fill-opacity="0.988235" transform="translate(0,0)"></path>
<path d="M 601.897 845.386 C 607.899 847.34 611.819 850.955 604.335 854.82 C 595.67 852.694 596.321 850.442 601.897 845.386 z" fill="rgb(5,196,172)" fill-opacity="0.894118" transform="translate(0,0)"></path>
<metadata></metadata></svg>