<svg xmlns="http://www.w3.org/2000/svg" height="2048" preserveAspectRatio="none" style="display: block;" version="1.1" viewBox="0 0 2048 2048" width="2048">
<defs>
	<linearGradient gradientUnits="userSpaceOnUse" id="Gradient1" x1="775.379" x2="1286.53" y1="517" y2="569.887">
		<stop class="stop0" offset="0" stop-color="rgb(255,255,255)" stop-opacity="0"></stop>
		<stop class="stop1" offset="1" stop-color="rgb(255,255,255)" stop-opacity="0.0470588"></stop>
	</linearGradient>
</defs>
<path d="M 1010.9 224.497 C 1036.63 223.742 1059.77 223.61 1085.24 230.732 C 1146.17 247.773 1194.83 293.508 1219.66 351.157 C 1225.67 365.13 1226.54 382.497 1231.82 396.557 C 1234.18 402.857 1252.41 400.616 1258.08 401.068 C 1282.07 402.883 1310.32 397.699 1333.67 401.886 C 1366.96 407.859 1364.13 439.737 1364.18 463.501 L 1364.3 519.919 L 1364.39 604.684 C 1364.34 626.84 1365.93 648.645 1360.08 670.12 C 1336.69 693.287 1332.34 689.201 1301.31 689.265 L 1247.64 689.313 L 1055.25 688.961 L 831.723 688.472 L 765.777 688.207 C 749.729 688.134 727.211 691.062 714.281 680.552 C 704.94 672.959 700.991 667.074 699.982 655.07 C 698.695 639.754 698.831 624.486 698.94 609.121 L 699.303 545.71 L 698.938 476.274 C 698.541 412.945 697.652 398.499 768.786 400.638 C 785.87 401.152 804.469 400.631 822.062 400.771 C 836.533 400.886 830.583 379.789 834.913 370.355 C 842.581 344.993 855.588 317.633 872.475 297.506 C 907.053 255.708 956.874 229.43 1010.9 224.497 z M 1281.24 610.838 C 1285.06 610.144 1283.37 610.903 1286.43 608.325 C 1287.1 606.949 1287.92 605.146 1287.81 603.623 C 1286.34 583.648 1290.44 492.436 1285.97 478.019 C 1281.96 475.479 1144.76 476.387 1126.18 476.402 L 869.143 476.344 L 812.992 476.407 C 804.057 476.46 789.156 477.086 780.987 476.206 C 778.537 477.555 774.376 480.116 774.426 483.197 C 775.01 519.257 773.759 555.367 774.997 591.446 C 775.205 597.534 775.106 602.765 776.586 608.598 C 779.684 612.24 822.243 610.704 828.714 610.655 L 907.276 610.358 L 1173.83 610.528 C 1206.66 610.724 1249.15 609.308 1281.24 610.838 z M 1039.53 400.758 L 1115.37 400.498 C 1122.4 400.457 1150.24 401.758 1154.81 398.291 C 1157.54 388.834 1140.55 362.49 1135.16 354.078 C 1112.39 318.59 1068.4 301.273 1027.34 302.339 C 1020.33 302.943 1011.79 303.465 1005.21 304.567 C 964.165 311.435 923.776 344.854 911.416 384.883 C 909.994 389.489 907.934 390.223 907.539 395.887 C 908.279 397.618 908.726 399.546 911.116 399.788 C 920.871 400.778 933.221 400.633 942.933 400.711 L 1039.53 400.758 z" fill="rgb(13,9,64)" transform="translate(0,0)"></path>
<path d="M 780.987 476.206 C 789.156 477.086 804.057 476.46 812.992 476.407 L 869.143 476.344 L 1126.18 476.402 C 1144.76 476.387 1281.96 475.479 1285.97 478.019 C 1290.44 492.436 1286.34 583.648 1287.81 603.623 C 1287.92 605.146 1287.1 606.949 1286.43 608.325 C 1283.37 610.903 1285.06 610.144 1281.24 610.838 C 1249.15 609.308 1206.66 610.724 1173.83 610.528 L 907.276 610.358 L 828.714 610.655 C 822.243 610.704 779.684 612.24 776.586 608.598 C 775.106 602.765 775.205 597.534 774.997 591.446 C 773.759 555.367 775.01 519.257 774.426 483.197 C 774.376 480.116 778.537 477.555 780.987 476.206 z" fill="url(#Gradient1)" transform="translate(0,0)"></path>
<path d="M 1425.31 560.61 C 1425.25 551.837 1423.41 505.402 1426.6 501.842 C 1437 495.414 1471.27 501.835 1483.63 504.583 C 1562.85 522.201 1626.76 591.756 1636.06 672.607 C 1638.74 695.902 1637.71 726.183 1637.75 750.117 L 1637.62 864.832 L 1637.22 1195.71 L 1637.48 1474.46 L 1637.54 1557.76 C 1637.52 1583.68 1638.82 1618.97 1632.41 1643.49 C 1619.21 1693.94 1591.63 1731.69 1546.89 1758.33 C 1504.48 1783.41 1453.79 1790.45 1406.15 1777.88 C 1304.9 1751.15 1256.72 1659.5 1264.02 1562.1 C 1264.32 1558.16 1267.28 1544.45 1261.3 1543.35 C 1213.87 1542.74 1139.65 1542.44 1094.96 1542.6 L 619.558 1543.06 L 491.464 1542.97 L 445.323 1542.58 C 440.248 1542.56 431.614 1541.95 427.3 1542.56 C 405.735 1541 371.202 1541.86 348.723 1541.98 C 349.22 1528.82 349.005 1512.71 348.567 1499.59 C 353.881 1486.92 355.948 1476.81 369.604 1469.74 C 375.209 1466.83 381.717 1467.17 387.875 1466.45 C 432.506 1464.12 477.798 1466.01 522.458 1465.69 L 1043.34 1465.43 L 1201.12 1465.4 C 1225.66 1465.35 1298.03 1462 1317.91 1468.6 C 1326.69 1471.52 1332.57 1476.29 1336.87 1484.62 C 1343.56 1497.59 1342.05 1512.94 1341.96 1527.06 L 1341.55 1576.76 C 1341.27 1616.12 1343.05 1646.47 1372.9 1676.53 C 1385.4 1688.98 1400.6 1698.38 1417.32 1704.01 C 1443.85 1712.97 1478.81 1710.54 1503.76 1697.83 C 1528.59 1685.38 1547.33 1663.42 1555.74 1636.95 C 1557.73 1630.72 1560.13 1623.27 1560.01 1616.77 L 1564.45 1614.46 C 1566.59 1611.04 1566.2 1604.47 1566.18 1600.25 C 1566.03 1553.44 1565.94 1506.5 1565.89 1459.7 L 1565.87 1190.85 L 1565.91 951.638 C 1565.88 911.667 1566.4 869.836 1565.44 830.032 C 1564.59 839.168 1564.92 857.241 1564.81 867.001 C 1563.14 831.973 1565.43 792.526 1564.53 757.215 C 1564.15 742.342 1566.02 712.96 1562.04 699.854 L 1559.91 699.498 C 1559.58 693.323 1559.87 685.38 1558.93 679.495 C 1550.81 628.935 1507.06 583.151 1455.34 576.257 C 1449.62 564.436 1447.23 571.23 1435 569.887 C 1433.51 569.724 1428.28 569.624 1427.66 569.264 C 1427.09 566.674 1426.3 564.167 1425.62 561.604 L 1425.31 560.61 z" fill="rgb(13,9,64)" transform="translate(0,0)"></path>
<path d="M 727.2 1194.1 C 735.742 1195.73 750.574 1194.93 759.555 1194.81 C 773.655 1194.6 787.758 1194.57 801.859 1194.73 L 1014.1 1194.74 L 1181.27 1195.03 L 1228.38 1195.55 C 1235.82 1195.65 1248.99 1196.38 1255.68 1195.08 C 1262.42 1189.55 1261.32 1153.11 1258.1 1145.26 C 1256.8 1142.08 1221.86 1143.82 1216.44 1143.75 C 1177.82 1143.44 1139.2 1143.35 1100.58 1143.48 L 763.994 1143.52 L 676.658 1143.69 C 662.719 1143.77 644.161 1144.98 630.109 1143.23 C 592.433 1138.54 586.403 1085.89 619.385 1069.64 C 627.052 1065.86 646.426 1067.08 655.551 1066.22 C 708.078 1066 760.622 1065.99 813.153 1066 L 1093.74 1066.33 C 1138.63 1066.7 1183.51 1066.8 1228.4 1066.64 C 1253.36 1066.54 1279.71 1065.47 1304.43 1066.98 C 1320.97 1067.99 1333.53 1085.18 1334.7 1100.55 C 1334.76 1147.08 1334.51 1194.02 1332.77 1240.5 C 1332.55 1246.39 1331.15 1252.18 1327.92 1257.11 C 1314.84 1277.11 1278.95 1272.01 1257.95 1272.03 L 1158.08 1272.06 L 880.968 1272.15 C 829.886 1272.13 777.934 1271.59 726.926 1272.19 C 728.264 1249.5 727.105 1217.6 727.2 1194.1 z" fill="rgb(13,9,64)" transform="translate(0,0)"></path>
<path d="M 1412.13 1007.69 C 1405.32 1008.53 1398.58 1009.61 1391.85 1011.01 C 1368.35 1015.9 1343.55 1013.94 1319.66 1013.54 C 1293.45 1013.2 1267.23 1013.01 1241.02 1012.98 L 1028.4 1012.99 L 765.689 1012.97 L 676.575 1013.1 C 660.004 1013.12 643.079 1013.31 626.686 1012.84 C 584.715 1011.23 592.277 976.928 591.438 948.319 C 590.091 902.398 589.465 862.47 628.331 830.513 C 647.32 815.093 672.706 805.197 697.361 804.826 C 738.47 804.208 780.205 803.611 821.309 805.196 C 840.174 805.923 844.878 813.419 856.015 827.116 C 857.623 840.744 857.146 845.074 856 859.094 C 846.305 871.676 846.127 871.782 832.719 880.024 C 785.595 882.352 733.074 879.347 685.027 880.751 C 673.831 889.265 664.987 895.24 666.328 910.876 C 666.994 918.63 664.296 933.292 670.558 939.064 C 683.95 941.273 722.478 938.146 738.552 938.431 C 771.203 939.009 804.22 939.09 836.884 938.908 L 1217.2 938.155 C 1241.13 938.119 1369.67 941.353 1382.03 936.129 C 1392.3 931.785 1395.55 921.463 1399.42 911.941 C 1399.89 907.908 1399.97 905.758 1399.93 901.693 L 1444.83 901.743 C 1452.7 901.72 1465.43 901.238 1472.87 902.294 C 1475 905.353 1472.55 906.514 1474.63 911.489 C 1476.85 921.583 1473.3 939.157 1469.23 948.756 C 1466.18 955.95 1465 954.484 1463.58 963.607 C 1457.01 969.054 1448.84 982.647 1439.55 990.231 C 1428.85 998.97 1421.37 999.708 1412.13 1007.69 z" fill="rgb(37,181,160)" transform="translate(0,0)"></path>
<path d="M 1239.25 1712.06 C 1244.26 1718.25 1256.25 1735.47 1261.24 1742.5 C 1267.16 1750.84 1295.76 1777.53 1296.64 1781.78 L 1295.33 1783.43 C 1291.15 1785.83 1179.79 1784.29 1165.38 1784.28 L 728.106 1784.21 L 588.705 1784.22 C 567.208 1784.22 534.94 1785.27 514.333 1783.76 C 467.036 1780.25 423.13 1757.9 392.465 1721.72 C 348.597 1670.59 347.163 1616.86 348.528 1553.42 C 348.921 1535.17 347.136 1518.65 348.567 1499.59 C 349.005 1512.71 349.22 1528.82 348.723 1541.98 C 371.202 1541.86 405.735 1541 427.3 1542.56 C 421.672 1548.94 424.385 1572.71 424.039 1582.29 C 423.063 1611.64 424.607 1633.23 439.073 1659.29 C 472.612 1719.71 537.713 1710.17 597.049 1709.66 C 623.773 1709.4 650.498 1709.38 677.223 1709.58 L 1112.52 1710.43 C 1131.42 1710.54 1150.31 1710.44 1169.2 1710.14 C 1187.69 1709.78 1222.87 1707.5 1239.25 1712.06 z" fill="rgb(37,181,160)" transform="translate(0,0)"></path>
<path d="M 462.708 812.451 C 473.452 811.759 482.912 812.284 492.545 817.891 C 499.892 822.167 506.649 829.519 508.82 837.878 C 514.629 860.238 511.657 905.83 511.621 930.976 L 511.64 1073.07 L 511.612 1275.16 C 511.59 1304.72 511.762 1334.28 511.712 1363.83 C 511.681 1382.53 502.359 1393.99 485.781 1400.71 L 484.509 1401.24 C 473.412 1407.07 458.67 1401.81 449.669 1394.5 C 442.43 1388.63 440.652 1383.35 435.936 1375.82 C 436.884 1332.54 435.996 1285.84 435.991 1242.32 L 435.975 979.394 L 435.879 888.594 C 435.853 873.633 435.185 855.06 436.835 840.427 C 438.344 827.044 452.538 819.749 462.708 812.451 z" fill="rgb(13,9,64)" transform="translate(0,0)"></path>
<path d="M 939.79 880.009 C 926.052 871.733 920.433 870.432 915.747 853.258 C 912.896 843.017 913.514 831.739 919.129 822.598 C 922.409 817.259 931.377 807.801 937.628 806.924 C 964.299 803.184 995.314 804.804 1022.25 804.688 L 1219.16 804.688 L 1328.58 804.385 C 1346.31 804.308 1366.1 803.806 1383.68 804.659 C 1399.38 805.422 1418.51 814.371 1431.61 823.255 C 1453.89 838.371 1470.23 864.46 1475.64 890.81 C 1477.62 900.464 1474.39 904.114 1474.63 911.489 C 1472.55 906.514 1475 905.353 1472.87 902.294 C 1465.43 901.238 1452.7 901.72 1444.83 901.743 L 1399.93 901.693 C 1399.97 905.758 1399.89 907.908 1399.42 911.941 C 1399.13 895.255 1390.35 889.096 1377.22 880.67 C 1337.6 878.983 1292.03 880.92 1251.85 880.504 C 1148.17 879.431 1043.41 881.742 939.79 880.009 z" fill="rgb(13,9,64)" transform="translate(0,0)"></path>
<path d="M 682.356 1272.4 C 674.526 1278.2 663.458 1286.71 664.913 1297.84 C 666.389 1309.12 671.551 1321.28 683.197 1325.16 C 696.644 1329.64 714.924 1328.14 729.405 1328.13 L 832.564 1328 C 849.623 1327.98 865.66 1327.77 882.727 1328.86 C 927.496 1331.72 924.073 1402.1 880.443 1402.16 C 817.913 1402.25 755.079 1401.77 692.502 1401.69 C 631.036 1401.61 584.368 1346.66 591.807 1286.08 C 598.825 1226.57 645.856 1191.04 704.193 1194.66 C 711.405 1195.11 719.475 1193.56 727.2 1194.1 C 727.105 1217.6 728.264 1249.5 726.926 1272.19 C 712.115 1272.07 697.139 1271.79 682.356 1272.4 z" fill="rgb(37,181,160)" transform="translate(0,0)"></path>
<path d="M 1141.67 1328.3 C 1143.11 1328.22 1144.56 1328.17 1146 1328.15 C 1212.81 1327.22 1281.32 1328.33 1348.3 1328.24 L 1409.79 1328.03 C 1434.71 1327.88 1451.78 1323.67 1471.2 1342.53 L 1473.41 1349.42 C 1481.21 1373.15 1476.62 1383.18 1459.66 1399.3 C 1454.29 1400.26 1448.93 1401.29 1443.58 1402.4 C 1435.45 1403.27 1418.99 1402.78 1410.33 1402.74 L 1349.17 1402.62 L 1213.5 1402.56 C 1185.65 1402.44 1159.67 1404.42 1132.73 1399.7 C 1125.03 1393.14 1119.61 1389.12 1115.13 1379.49 C 1111.09 1370.64 1110.71 1360.54 1114.06 1351.41 C 1119.9 1335.75 1128.82 1334.03 1141.67 1328.3 z" fill="rgb(37,181,160)" transform="translate(0,0)"></path>
<path d="M 632.745 499.548 L 636.004 499.732 C 637.615 500.806 638.412 501.006 639.28 502.819 C 640.823 506.047 641.275 567.289 639.54 570.608 C 638.013 573.527 636.245 574.713 633.137 575.491 C 622.296 572.064 614.189 574.753 602.526 577.242 C 558.718 586.594 520.82 624.382 513.054 668.877 C 508.882 692.787 516.391 722.342 503.202 742.481 C 495.066 754.904 483.131 756.604 470.064 759.184 C 463.979 756.822 459.609 756.798 454.553 753.004 C 442.344 747.069 437.118 733.995 436.046 721.248 C 425.933 601.024 511.507 503.527 632.745 499.548 z" fill="rgb(37,181,160)" transform="translate(0,0)"></path>
<path d="M 1435.28 1067.6 C 1447.57 1065.37 1461.73 1069.33 1470.59 1078.42 C 1473.43 1081.34 1478.8 1089.16 1479.31 1093.18 C 1481.32 1109.3 1480.56 1126.09 1480.56 1142.36 C 1480.67 1176.51 1480.52 1210.65 1480.1 1244.79 C 1476.68 1250.7 1473.12 1256.53 1469.44 1262.28 C 1462.9 1265.67 1458.37 1268.33 1451.22 1270.16 C 1432.06 1276.51 1420.76 1264.63 1408.62 1252.68 C 1403.01 1224.45 1402.47 1112.8 1408.66 1084.36 C 1418.55 1074.19 1421.04 1070.85 1435.28 1067.6 z" fill="rgb(37,181,160)" fill-opacity="0.988235" transform="translate(0,0)"></path>
<path d="M 1559.91 699.498 L 1562.04 699.854 C 1566.02 712.96 1564.15 742.342 1564.53 757.215 C 1565.43 792.526 1563.14 831.973 1564.81 867.001 C 1564.92 857.241 1564.59 839.168 1565.44 830.032 C 1566.4 869.836 1565.88 911.667 1565.91 951.638 L 1565.87 1190.85 L 1565.89 1459.7 C 1565.94 1506.5 1566.03 1553.44 1566.18 1600.25 C 1566.2 1604.47 1566.59 1611.04 1564.45 1614.46 L 1560.01 1616.77 C 1561.13 1591.52 1560.25 1561.35 1560.22 1535.71 L 1560.11 1386.85 L 1559.92 913.66 L 1559.85 770.791 C 1559.83 749.563 1558.63 719.644 1559.91 699.498 z" fill="rgb(13,9,64)" fill-opacity="0.976471" transform="translate(0,0)"></path>
<path d="M 1004.8 1328.1 C 1026.46 1326.58 1038.18 1337.29 1043.46 1357.38 C 1045.4 1364.75 1040.87 1378.85 1039.42 1386.62 C 1036.72 1389.47 1028.73 1399.26 1025.01 1400.09 C 1021.04 1400.97 1021.54 1400.75 1017.48 1402.89 C 1011.98 1404.07 999.824 1402.12 995.239 1398.66 C 992.229 1396.4 988.803 1392.14 985.08 1389.15 C 980.595 1374.93 975.866 1362.51 983.131 1347.51 C 989.937 1333.45 991.898 1335.38 1004.8 1328.1 z" fill="rgb(37,181,160)" fill-opacity="0.968627" transform="translate(0,0)"></path>
<path d="M 1425.31 560.61 L 1425.62 561.604 C 1426.3 564.167 1427.09 566.674 1427.66 569.264 C 1428.28 569.624 1433.51 569.724 1435 569.887 C 1447.23 571.23 1449.62 564.436 1455.34 576.257 C 1448.71 576.175 1442.64 576.426 1436 576.487 C 1422.53 576.609 1424.75 569.746 1425.31 560.61 z" fill="rgb(13,9,64)" fill-opacity="0.976471" transform="translate(0,0)"></path>
<metadata></metadata></svg>