<svg width="3599" height="1593" xmlns="http://www.w3.org/2000/svg" xmlns:xlink="http://www.w3.org/1999/xlink" xml:space="preserve" overflow="hidden"><defs><clipPath id="clip0"><rect x="376" y="428" width="3599" height="1593"/></clipPath></defs><g clip-path="url(#clip0)" transform="translate(-376 -428)"><path d="M498.606 1833.72 436 1833.72 436 1978.61 469.737 1978.61 469.737 1938.65 498.953 1938.65C511.822 1938.65 522.952 1936.57 532.343 1932.4 541.734 1928.23 549.038 1921.97 554.255 1914.33 559.472 1906.34 561.907 1896.96 561.907 1886.53 561.907 1875.76 559.472 1866.38 554.255 1858.39 549.038 1850.4 541.734 1844.49 532.343 1840.32 522.604 1836.15 511.474 1833.72 498.606 1833.72L498.606 1833.72 498.606 1833.72ZM496.866 1911.55 469.39 1911.55 469.39 1861.17 496.866 1861.17C506.953 1861.17 514.605 1863.25 519.822 1867.77 525.039 1872.29 527.821 1878.19 527.821 1886.53 527.821 1894.87 525.039 1900.78 519.822 1904.95 514.605 1909.47 506.953 1911.55 496.866 1911.55L496.866 1911.55 496.866 1911.55ZM663.119 1980.35C674.945 1980.35 685.379 1977.92 694.77 1973.05 704.161 1968.19 711.117 1961.24 716.682 1952.55 721.899 1943.86 724.681 1933.79 724.681 1923.02 724.681 1911.9 722.247 1902.17 716.682 1893.48 711.465 1884.8 704.161 1877.85 694.77 1872.98 685.379 1868.12 674.945 1865.69 663.119 1865.69 651.294 1865.69 640.859 1868.12 631.469 1872.98 622.078 1877.85 614.774 1884.8 609.556 1893.48 604.339 1902.17 601.557 1912.25 601.557 1923.02 601.557 1934.14 604.339 1943.86 609.556 1952.55 614.774 1961.24 622.078 1968.19 631.469 1973.05 640.859 1977.92 651.294 1980.35 663.119 1980.35L663.119 1980.35ZM663.119 1953.94C654.772 1953.94 648.163 1951.16 642.598 1945.6 637.034 1940.04 634.599 1932.4 634.599 1923.02 634.599 1913.64 637.381 1905.99 642.598 1900.43 648.163 1894.87 654.772 1892.09 663.119 1892.09 671.467 1892.09 678.075 1894.87 683.64 1900.43 688.857 1905.99 691.639 1913.64 691.639 1923.02 691.639 1932.4 688.857 1940.04 683.64 1945.6 678.075 1951.16 671.467 1953.94 663.119 1953.94L663.119 1953.94ZM838.763 1865.69C824.503 1865.69 813.373 1870.2 805.025 1879.24L805.025 1825.03 772.679 1825.03 772.679 1978.61 803.634 1978.61 803.634 1965.75C811.633 1975.48 823.459 1980.35 838.763 1980.35 849.197 1980.35 858.588 1977.92 866.935 1973.05 875.283 1968.19 882.239 1961.58 887.108 1952.9 891.977 1944.21 894.412 1934.14 894.412 1922.67 894.412 1911.2 891.977 1901.13 887.108 1892.44 882.239 1883.75 875.631 1877.15 866.935 1872.29 858.588 1868.12 849.197 1865.69 838.763 1865.69L838.763 1865.69 838.763 1865.69ZM833.198 1953.94C824.85 1953.94 818.242 1951.16 812.677 1945.6 807.46 1940.04 804.677 1932.4 804.677 1923.02 804.677 1913.64 807.46 1905.99 812.677 1900.43 817.894 1894.87 824.85 1892.09 833.198 1892.09 841.545 1892.09 848.154 1894.87 853.718 1900.43 858.936 1905.99 861.718 1913.64 861.718 1923.02 861.718 1932.4 858.936 1940.04 853.718 1945.6 848.154 1951.16 841.545 1953.94 833.198 1953.94L833.198 1953.94ZM942.757 1978.96 975.104 1978.96 975.104 1825.38 942.757 1825.38 942.757 1978.96 942.757 1978.96ZM1077.36 1865.69C1068.32 1865.69 1059.62 1866.73 1051.27 1869.16 1042.93 1871.59 1035.62 1874.72 1029.36 1879.24L1040.84 1901.82C1045.01 1898.7 1049.88 1896.26 1055.45 1894.18 1061.01 1892.44 1066.93 1891.4 1072.84 1891.4 1081.53 1891.4 1087.79 1893.14 1092.32 1896.96 1096.49 1900.78 1098.58 1906.34 1098.58 1913.29L1072.84 1913.29C1056.49 1913.29 1044.32 1916.42 1036.67 1922.32 1029.01 1928.23 1024.84 1936.57 1024.84 1946.64 1024.84 1953.25 1026.58 1958.81 1029.71 1964.02 1033.19 1969.23 1037.71 1973.05 1043.97 1976.18 1050.23 1978.96 1057.53 1980.69 1066.23 1980.69 1082.92 1980.69 1094.05 1975.48 1100.31 1965.06L1100.31 1978.96 1130.57 1978.96 1130.57 1915.37C1130.57 1898.7 1126.05 1886.53 1116.66 1878.19 1107.97 1869.86 1094.4 1865.69 1077.36 1865.69L1077.36 1865.69 1077.36 1865.69ZM1074.92 1958.81C1069.36 1958.81 1064.84 1957.42 1061.71 1955.33 1058.58 1952.9 1056.84 1949.77 1056.84 1945.6 1056.84 1936.92 1063.45 1932.4 1076.66 1932.4L1098.92 1932.4 1098.92 1943.86C1097.18 1948.73 1094.05 1952.55 1089.88 1954.98 1085.36 1957.42 1080.49 1958.81 1074.92 1958.81L1074.92 1958.81 1074.92 1958.81ZM1242.22 1980.35C1254.05 1980.35 1264.13 1977.92 1273.18 1972.7 1281.87 1967.84 1288.48 1960.89 1292.31 1951.86L1267.26 1938.31C1261.7 1948.38 1253.35 1953.59 1242.22 1953.59 1233.87 1953.59 1226.92 1950.81 1221.35 1945.25 1215.79 1939.69 1213.01 1932.05 1213.01 1922.67 1213.01 1913.29 1215.79 1905.64 1221.35 1900.08 1226.92 1894.53 1233.87 1891.75 1242.22 1891.75 1253 1891.75 1261.7 1896.96 1267.26 1907.03L1292.31 1893.48C1288.13 1884.45 1281.87 1877.5 1273.18 1872.29 1264.48 1867.42 1254.05 1864.99 1242.22 1864.99 1230.4 1864.99 1219.61 1867.42 1210.22 1872.29 1200.83 1877.15 1193.53 1884.1 1187.96 1892.79 1182.4 1901.47 1179.96 1911.55 1179.96 1922.32 1179.96 1933.09 1182.75 1943.17 1187.96 1951.86 1193.18 1960.54 1200.83 1967.49 1210.22 1972.36 1219.61 1978.26 1230.4 1980.69 1242.22 1980.35L1242.22 1980.35 1242.22 1980.35ZM1337.87 1978.96 1370.21 1978.96 1370.21 1867.42 1337.87 1867.42 1337.87 1978.96 1337.87 1978.96ZM1354.22 1851.79C1360.13 1851.79 1365 1850.05 1368.82 1846.58 1372.65 1843.1 1374.39 1838.58 1374.39 1833.37 1374.39 1828.51 1372.65 1824.34 1368.82 1820.86 1365 1817.39 1360.13 1816 1354.22 1816 1348.3 1816 1343.43 1817.74 1339.61 1821.21 1335.78 1824.69 1334.04 1828.86 1334.04 1834.07 1334.04 1839.28 1335.78 1843.45 1339.61 1846.92 1343.43 1850.4 1348.3 1851.79 1354.22 1851.79L1354.22 1851.79ZM1480.47 1980.35C1492.3 1980.35 1502.73 1977.92 1512.12 1973.05 1521.51 1968.19 1528.47 1961.24 1534.03 1952.55 1539.25 1943.86 1542.03 1933.79 1542.03 1923.02 1542.03 1911.9 1539.25 1902.17 1534.03 1893.48 1528.82 1884.8 1521.51 1877.85 1512.12 1872.98 1502.73 1868.12 1492.3 1865.69 1480.47 1865.69 1468.64 1865.69 1458.21 1868.12 1448.82 1872.98 1439.43 1877.85 1432.12 1884.8 1426.91 1893.48 1421.69 1902.17 1418.91 1912.25 1418.91 1923.02 1418.91 1934.14 1421.34 1943.86 1426.91 1952.55 1432.12 1961.24 1439.43 1968.19 1448.82 1973.05 1458.21 1977.92 1468.64 1980.35 1480.47 1980.35L1480.47 1980.35ZM1480.47 1953.94C1472.12 1953.94 1465.17 1951.16 1459.95 1945.6 1454.38 1940.04 1451.95 1932.4 1451.95 1923.02 1451.95 1913.64 1454.73 1905.99 1459.95 1900.43 1465.17 1894.87 1472.12 1892.09 1480.47 1892.09 1488.82 1892.09 1495.43 1894.87 1500.99 1900.43 1506.56 1905.99 1508.99 1913.64 1508.99 1923.02 1508.99 1932.4 1506.21 1940.04 1500.99 1945.6 1495.43 1951.16 1488.47 1953.94 1480.47 1953.94L1480.47 1953.94ZM1460.99 1853.18 1486.38 1853.18 1523.95 1823.3 1489.17 1823.3 1460.99 1853.18 1460.99 1853.18ZM1657.85 1865.69C1650.2 1865.69 1643.24 1867.08 1636.98 1869.51 1630.72 1871.94 1625.16 1875.76 1620.99 1880.28L1620.99 1867.08 1590.03 1867.08 1590.03 1978.61 1622.38 1978.61 1622.38 1923.36C1622.38 1913.29 1624.81 1905.99 1629.68 1900.78 1634.55 1895.92 1641.16 1893.14 1649.16 1893.14 1656.46 1893.14 1662.03 1895.22 1665.85 1899.74 1669.68 1904.25 1671.77 1910.86 1671.77 1919.54L1671.77 1978.26 1704.11 1978.26 1704.11 1914.33C1704.11 1898 1699.94 1885.84 1691.24 1877.5 1682.9 1869.86 1671.77 1865.69 1657.85 1865.69L1657.85 1865.69 1657.85 1865.69ZM1924.62 1867.42 1892.97 1943.17 1861.67 1867.42 1828.28 1867.42 1876.62 1979.65 1876.28 1980.69C1874.19 1985.56 1871.41 1989.38 1868.63 1991.47 1865.84 1993.55 1862.36 1994.59 1857.84 1994.59 1854.71 1994.59 1851.58 1993.9 1848.1 1992.86 1844.63 1991.81 1841.84 1989.73 1839.41 1987.64L1827.58 2010.58C1831.06 2013.7 1835.93 2016.14 1841.5 2018.22 1847.06 2019.96 1852.97 2021 1858.54 2021 1869.32 2021 1878.36 2018.22 1885.67 2013.01 1893.32 2007.8 1899.58 1998.76 1904.8 1985.91L1955.23 1867.77 1924.62 1867.42 1924.62 1867.42ZM2189.3 1833.72 2144.44 1937.26 2100.61 1833.72 2064.44 1833.72 2127.05 1978.61 2160.09 1978.61 2223.04 1833.72 2189.3 1833.72 2189.3 1833.72ZM2261.65 1978.96 2294 1978.96 2294 1867.42 2261.65 1867.42 2261.65 1978.96 2261.65 1978.96ZM2277.65 1851.79C2283.56 1851.79 2288.43 1850.05 2292.26 1846.58 2296.08 1843.1 2297.82 1838.58 2297.82 1833.37 2297.82 1828.51 2296.08 1824.34 2292.26 1820.86 2288.43 1817.39 2283.56 1816 2277.65 1816 2271.74 1816 2266.87 1817.74 2263.04 1821.21 2259.21 1824.69 2257.48 1828.86 2257.48 1834.07 2257.48 1839.28 2259.21 1843.45 2263.04 1846.92 2266.87 1850.05 2271.74 1851.79 2277.65 1851.79L2277.65 1851.79ZM2430.68 1867.42 2398.69 1943.17 2367.73 1867.42 2334.34 1867.42 2381.3 1978.96 2414.69 1978.96 2461.64 1867.42 2430.68 1867.42 2430.68 1867.42ZM2501.99 1978.96 2534.33 1978.96 2534.33 1867.42 2501.99 1867.42 2501.99 1978.96 2501.99 1978.96ZM2517.98 1851.79C2523.9 1851.79 2528.77 1850.05 2532.59 1846.58 2536.42 1843.1 2538.16 1838.58 2538.16 1833.37 2538.16 1828.51 2536.42 1824.34 2532.59 1820.86 2528.77 1817.39 2523.9 1816 2517.98 1816 2512.07 1816 2507.2 1817.74 2503.38 1821.21 2499.55 1824.69 2497.81 1828.86 2497.81 1834.07 2497.81 1839.28 2499.55 1843.45 2503.38 1846.92 2507.2 1850.05 2512.07 1851.79 2517.98 1851.79L2517.98 1851.79ZM2700.58 1923.71C2700.58 1912.25 2698.15 1901.82 2692.93 1893.14 2687.72 1884.45 2681.11 1877.5 2672.06 1872.98 2663.02 1868.47 2653.28 1866.03 2642.5 1866.03 2631.72 1866.03 2621.28 1868.47 2612.24 1873.33 2603.2 1878.19 2595.89 1885.14 2591.02 1893.83 2585.81 1902.52 2583.37 1912.59 2583.37 1923.36 2583.37 1934.14 2586.16 1944.21 2591.37 1952.9 2596.59 1961.58 2604.24 1968.53 2613.63 1973.4 2623.37 1978.26 2634.5 1980.69 2647.02 1980.69 2667.19 1980.69 2682.5 1974.79 2692.93 1962.63L2675.54 1943.86C2671.72 1947.69 2667.54 1950.47 2663.02 1951.86 2658.5 1953.59 2653.28 1954.29 2647.72 1954.29 2639.37 1954.29 2632.07 1952.2 2626.5 1948.38 2620.94 1944.21 2617.11 1939 2615.72 1932.05L2700.24 1932.05C2700.24 1926.84 2700.58 1924.06 2700.58 1923.71L2700.58 1923.71 2700.58 1923.71ZM2642.85 1890.36C2650.15 1890.36 2656.06 1892.44 2660.93 1896.61 2665.8 1900.78 2668.93 1906.34 2669.98 1913.64L2615.02 1913.64C2616.07 1906.34 2619.2 1900.78 2624.07 1896.61 2629.28 1892.44 2635.54 1890.36 2642.85 1890.36L2642.85 1890.36 2642.85 1890.36ZM2816.75 1865.69C2809.1 1865.69 2802.14 1867.08 2795.88 1869.51 2789.62 1871.94 2784.06 1875.76 2779.88 1880.28L2779.88 1867.08 2748.93 1867.08 2748.93 1978.61 2781.28 1978.61 2781.28 1923.36C2781.28 1913.29 2783.71 1905.99 2788.58 1900.78 2793.45 1895.92 2800.06 1893.14 2808.06 1893.14 2815.36 1893.14 2820.93 1895.22 2824.75 1899.74 2828.58 1904.25 2830.67 1910.86 2830.67 1919.54L2830.67 1978.26 2863.01 1978.26 2863.01 1914.33C2863.01 1898 2858.84 1885.84 2850.14 1877.5 2842.14 1869.86 2830.67 1865.69 2816.75 1865.69L2816.75 1865.69 2816.75 1865.69ZM3001.79 1825.03 3001.79 1879.24C2993.79 1870.2 2982.66 1865.69 2968.4 1865.69 2957.96 1865.69 2948.57 1868.12 2939.88 1872.64 2931.53 1877.5 2924.57 1884.1 2920.05 1892.79 2915.53 1901.47 2912.75 1911.55 2912.75 1923.02 2912.75 1934.48 2915.18 1944.56 2920.05 1953.25 2924.92 1961.93 2931.53 1968.53 2939.88 1973.4 2948.22 1978.26 2957.96 1980.35 2968.4 1980.35 2983.7 1980.35 2995.18 1975.48 3003.18 1965.75L3003.18 1978.61 3034.13 1978.61 3034.13 1825.03 3001.79 1825.03 3001.79 1825.03ZM2973.96 1953.94C2965.61 1953.94 2958.66 1951.16 2953.44 1945.6 2947.88 1940.04 2945.44 1932.4 2945.44 1923.02 2945.44 1913.64 2948.22 1905.99 2953.44 1900.43 2958.66 1894.87 2965.61 1892.09 2973.96 1892.09 2982.31 1892.09 2988.92 1894.87 2994.14 1900.43 2999.35 1905.99 3002.13 1913.64 3002.13 1923.02 3002.13 1932.4 2999.35 1940.04 2994.14 1945.6 2988.92 1951.16 2982.31 1953.94 2973.96 1953.94L2973.96 1953.94ZM3136.04 1865.69C3127 1865.69 3118.3 1866.73 3109.96 1869.16 3101.61 1871.59 3094.3 1874.72 3088.04 1879.24L3099.52 1901.82C3103.69 1898.7 3108.56 1896.26 3114.13 1894.18 3119.69 1892.44 3125.61 1891.4 3131.52 1891.4 3140.21 1891.4 3146.48 1893.14 3151 1896.96 3155.17 1900.78 3157.26 1906.34 3157.26 1913.29L3131.52 1913.29C3115.17 1913.29 3103 1916.42 3095.35 1922.32 3087.7 1928.23 3083.52 1936.57 3083.52 1946.64 3083.52 1953.25 3085.26 1958.81 3088.39 1964.02 3091.87 1969.23 3096.39 1973.05 3102.65 1976.18 3108.91 1978.96 3116.22 1980.69 3124.91 1980.69 3141.61 1980.69 3152.74 1975.48 3159 1965.06L3159 1978.96 3189.26 1978.96 3189.26 1915.37C3189.26 1898.7 3184.73 1886.53 3175.34 1878.19 3166.65 1869.86 3153.43 1865.69 3136.04 1865.69L3136.04 1865.69 3136.04 1865.69ZM3133.61 1958.81C3128.04 1958.81 3123.52 1957.42 3120.39 1955.33 3117.26 1952.9 3115.52 1949.77 3115.52 1945.6 3115.52 1936.92 3122.13 1932.4 3135.35 1932.4L3157.61 1932.4 3157.61 1943.86C3155.87 1948.73 3152.74 1952.55 3148.56 1954.98 3144.39 1957.42 3139.17 1958.81 3133.61 1958.81L3133.61 1958.81 3133.61 1958.81ZM3402.46 1981.39C3414.98 1981.39 3426.46 1979.3 3436.55 1974.79 3446.63 1970.27 3455.33 1964.02 3462.29 1955.68L3440.72 1935.87C3430.98 1947.34 3418.81 1952.9 3404.2 1952.9 3395.16 1952.9 3387.16 1950.81 3380.2 1946.99 3373.25 1943.17 3367.68 1937.61 3363.86 1930.66 3360.03 1923.71 3357.94 1915.72 3357.94 1906.69 3357.94 1897.65 3360.03 1889.66 3363.86 1882.71 3367.68 1875.76 3373.25 1870.2 3380.2 1866.38 3387.16 1862.56 3395.16 1860.47 3404.2 1860.47 3418.81 1860.47 3430.98 1866.03 3440.72 1877.5L3462.29 1857.69C3455.33 1849.36 3446.98 1843.1 3436.55 1838.58 3426.46 1834.07 3414.98 1831.98 3402.46 1831.98 3387.51 1831.98 3373.94 1835.11 3362.12 1841.71 3350.29 1847.97 3340.9 1857 3333.94 1868.47 3326.99 1879.93 3323.51 1892.79 3323.51 1907.03 3323.51 1921.28 3326.99 1934.14 3333.94 1945.6 3340.9 1957.07 3350.29 1965.75 3362.12 1972.36 3374.29 1978.26 3387.85 1981.39 3402.46 1981.39L3402.46 1981.39 3402.46 1981.39ZM3577.76 1865.69C3570.45 1865.69 3563.85 1866.73 3557.93 1869.16 3551.67 1871.59 3546.8 1874.72 3542.28 1878.89L3542.28 1825.03 3509.94 1825.03 3509.94 1978.61 3542.28 1978.61 3542.28 1923.36C3542.28 1913.29 3544.72 1905.99 3549.59 1900.78 3554.46 1895.57 3561.06 1893.14 3569.06 1893.14 3576.37 1893.14 3581.93 1895.22 3585.76 1899.74 3589.58 1904.25 3591.67 1910.86 3591.67 1919.54L3591.67 1978.26 3624.02 1978.26 3624.02 1914.33C3624.02 1898 3619.84 1885.84 3611.15 1877.5 3602.45 1869.86 3591.32 1865.69 3577.76 1865.69L3577.76 1865.69 3577.76 1865.69ZM3680.01 1978.96 3712.36 1978.96 3712.36 1867.42 3680.01 1867.42 3680.01 1978.96 3680.01 1978.96ZM3696.36 1851.79C3702.27 1851.79 3707.14 1850.05 3710.97 1846.58 3714.8 1843.1 3716.53 1838.58 3716.53 1833.37 3716.53 1828.51 3714.8 1824.34 3710.97 1820.86 3707.14 1817.39 3702.27 1816 3696.36 1816 3690.45 1816 3685.58 1817.74 3681.75 1821.21 3677.93 1824.69 3676.19 1828.86 3676.19 1834.07 3676.19 1839.28 3677.93 1843.45 3681.75 1846.92 3685.58 1850.05 3690.45 1851.79 3696.36 1851.79L3696.36 1851.79ZM3769.4 1978.96 3801.75 1978.96 3801.75 1825.38 3769.4 1825.38 3769.4 1978.96 3769.4 1978.96ZM3968 1923.71C3968 1912.25 3965.57 1901.82 3960.35 1893.14 3955.48 1884.45 3948.52 1877.5 3939.48 1872.98 3930.78 1868.12 3920.7 1866.03 3909.92 1866.03 3899.13 1866.03 3888.7 1868.47 3879.66 1873.33 3870.61 1878.19 3863.31 1885.14 3858.44 1893.83 3853.22 1902.52 3850.79 1912.59 3850.79 1923.36 3850.79 1934.14 3853.22 1944.21 3858.79 1952.9 3864.01 1961.58 3871.66 1968.53 3881.05 1973.4 3890.79 1978.26 3901.92 1980.69 3914.44 1980.69 3934.61 1980.69 3949.91 1974.79 3960.35 1962.63L3943.31 1943.86C3939.48 1947.69 3935.31 1950.47 3930.78 1951.86 3926.26 1953.59 3921.05 1954.29 3915.48 1954.29 3907.13 1954.29 3899.83 1952.2 3894.26 1948.38 3888.7 1944.21 3884.87 1939 3883.48 1932.05L3968 1932.05C3968 1926.84 3968 1924.06 3968 1923.71L3968 1923.71 3968 1923.71ZM3910.26 1890.36C3917.57 1890.36 3923.48 1892.44 3928.35 1896.61 3933.22 1900.78 3936.35 1906.34 3937.39 1913.64L3882.44 1913.64C3883.48 1906.34 3886.61 1900.78 3891.48 1896.61 3896.7 1892.44 3902.96 1890.36 3910.26 1890.36L3910.26 1890.36 3910.26 1890.36Z" fill="#1E3B7D" fill-rule="evenodd"/><path d="M660.673 603.199C694.041 585.123 732.275 576.085 774.681 576.085 843.155 576.085 901.202 602.504 947.431 654.299L951.949 659.165 1066.65 556.618 1062.48 552.099C1028.42 512.123 985.665 481.185 935.613 459.981 885.561 438.776 828.556 428 766.686 428 692.998 428 625.914 443.643 567.172 474.233 508.083 505.171 461.159 548.275 427.095 602.851 393.032 657.774 376 720.693 376 789.174 376 857.654 393.032 920.573 427.095 975.149 460.811 1029.72 508.083 1073.18 567.172 1103.77 626.262 1134.36 692.998 1150 765.991 1150 827.861 1150 884.866 1139.22 935.266 1118.02 985.665 1096.81 1028.77 1065.53 1063.18 1025.21L1067 1020.69 952.297 918.139 947.778 923.006C901.549 975.496 843.155 1002.26 775.029 1002.26 732.623 1002.26 694.389 993.225 661.02 975.149 628 957.073 601.583 931.697 583.161 899.716 564.739 867.387 555.007 830.192 555.007 789.174 555.007 748.155 564.391 710.96 583.161 678.631 601.235 646.651 627.652 621.275 660.673 603.199L660.673 603.199 660.673 603.199Z" fill="#1E3B7D" fill-rule="evenodd"/><path d="M1337.88 852.65 1666.34 852.65 1666.34 716.26 1337.88 716.26 1337.88 580.218 1709.79 580.218 1709.79 440 1162 440 1162 1139 1723 1139 1723 998.782 1337.88 998.782 1337.88 852.65Z" fill="#1E3B7D" fill-rule="evenodd"/><path d="M2327.85 845.344 1987.29 442.088 1985.55 440 1840 440 1840 1139 2015.15 1139 2015.15 733.657 2356.75 1136.91 2358.84 1139 2503 1139 2503 440 2327.85 440 2327.85 845.344Z" fill="#1E3B7D" fill-rule="evenodd"/><path d="M3926.3 604.549C3893.6 549.53 3848.38 506.002 3792.03 474.662 3735.68 443.322 3670.63 428 3599.67 428 3528.71 428 3464.01 443.67 3406.97 475.01 3349.92 506.35 3305.05 549.878 3272.7 604.897 3240.35 659.916 3224 722.248 3224 790.5 3224 858.752 3240.35 921.432 3272.7 976.103 3305.05 1031.12 3350.27 1074.65 3406.97 1105.99 3464.01 1137.33 3528.71 1153 3599.67 1153 3670.63 1153 3735.33 1137.33 3791.69 1105.99 3848.38 1074.65 3893.6 1031.12 3925.95 976.103 3958.65 921.084 3975 858.752 3975 790.5 3975 722.248 3958.65 659.568 3926.3 604.549L3926.3 604.549 3926.3 604.549ZM3806.99 790.5C3806.99 832.287 3797.95 870.243 3779.86 902.976 3762.12 935.709 3737.07 961.478 3705.42 979.933 3674.11 998.041 3638.28 1007.44 3599.33 1007.44 3560.37 1007.44 3524.54 998.041 3493.23 979.933 3461.93 961.826 3436.88 935.709 3418.79 902.976 3400.71 870.243 3391.66 832.287 3391.66 790.5 3391.66 748.713 3400.71 710.757 3418.79 678.024 3436.88 645.291 3461.58 619.522 3493.23 601.067 3524.54 582.959 3560.37 573.557 3599.33 573.557 3638.28 573.557 3674.11 582.959 3705.42 601.067 3736.73 619.174 3761.77 645.291 3779.86 678.024 3797.95 710.757 3806.99 748.713 3806.99 790.5L3806.99 790.5Z" fill="#1E3B7D" fill-rule="evenodd"/><path d="M3130.45 820.466C3106.43 792.979 3077.53 772.799 3044.11 759.926 3011.04 747.4 2968.23 734.875 2916.7 722.349 2867.62 711.216 2830.72 700.082 2807.05 688.6 2784.42 677.814 2773.28 661.809 2773.28 639.89 2773.28 617.97 2783.03 599.878 2802.87 586.309 2823.06 572.391 2854.74 565.433 2897.21 565.433 2958.48 565.433 3020.79 583.525 3082.41 619.014L3087.28 621.797 3139.15 492.019 3136.02 489.931C3104.69 470.1 3067.79 454.443 3026.36 444.005 2984.93 433.567 2941.77 428 2898.6 428 2836.29 428 2782.68 437.742 2739.51 456.878 2696 476.363 2662.93 502.805 2641.34 535.859 2619.76 568.912 2608.62 606.488 2608.62 647.196 2608.62 694.167 2620.8 732.091 2644.83 760.622 2668.85 788.804 2697.74 809.332 2731.51 822.205 2764.58 834.731 2807.4 847.256 2858.92 859.782 2891.99 867.437 2918.79 874.743 2938.29 881.354 2957.43 887.616 2973.1 896.315 2984.93 906.753 2996.42 916.842 3002.34 929.02 3002.34 944.329 3002.34 965.205 2992.59 981.558 2972.4 994.431 2951.86 1007.3 2919.84 1013.92 2876.32 1013.92 2836.99 1013.92 2797.3 1007.3 2757.96 994.431 2718.63 981.558 2684.51 964.161 2655.96 942.937L2651.09 939.458 2594 1068.19 2596.78 1070.28C2627.42 1094.29 2668.5 1113.77 2718.63 1128.73 2768.75 1143.69 2821.32 1151 2875.28 1151 2937.59 1151 2991.2 1141.26 3034.72 1122.12 3078.58 1102.64 3112 1076.19 3133.93 1043.14 3155.86 1010.09 3167 972.859 3167 932.847 3167 885.877 3154.82 848.3 3130.45 820.466L3130.45 820.466 3130.45 820.466Z" fill="#1E3B7D" fill-rule="evenodd"/><path d="M794 1432C794 1472.84 760.735 1506 719.5 1506 678.265 1506 645 1472.84 645 1432 645 1391.16 678.265 1358 719.5 1358 760.735 1358 794 1391.16 794 1432" fill="#F8AA00" fill-rule="evenodd"/><path d="M719.848 1673C709.062 1673 698.276 1668.82 689.925 1660.81L388.265 1359.84C371.912 1343.47 371.912 1316.65 388.265 1300.28 404.618 1283.91 431.409 1283.91 447.762 1300.28L719.5 1571.63 991.238 1300.28C1007.59 1283.91 1034.38 1283.91 1050.74 1300.28 1067.09 1316.65 1067.09 1343.47 1050.74 1359.84L749.074 1660.81C741.42 1668.82 730.634 1673 719.848 1673L719.848 1673 719.848 1673Z" fill="#F8AA00" fill-rule="evenodd"/><path d="M1524 1432C1524 1472.84 1490.73 1506 1449.5 1506 1408.61 1506 1375 1472.84 1375 1432 1375 1391.16 1408.26 1358 1449.5 1358 1490.73 1358 1524 1391.16 1524 1432" fill="#B12020" fill-rule="evenodd"/><path d="M1449.85 1673C1439.06 1673 1428.28 1668.82 1419.93 1660.81L1118.26 1359.84C1101.91 1343.47 1101.91 1316.65 1118.26 1300.28 1134.62 1283.91 1161.41 1283.91 1177.76 1300.28L1449.5 1571.63 1721.24 1300.28C1737.59 1283.91 1764.38 1283.91 1780.74 1300.28 1797.09 1316.65 1797.09 1343.47 1780.74 1359.84L1479.07 1660.81C1471.42 1668.82 1460.63 1673 1449.85 1673L1449.85 1673 1449.85 1673Z" fill="#B12020" fill-rule="evenodd"/><path d="M2255 1432C2255 1472.84 2221.51 1506 2180 1506 2138.84 1506 2105 1472.84 2105 1432 2105 1391.16 2138.49 1358 2180 1358 2221.51 1358 2255 1391.16 2255 1432" fill="#EE7D00" fill-rule="evenodd"/><path d="M2179.85 1673C2169.06 1673 2158.28 1668.82 2149.93 1660.81L1848.26 1359.84C1831.91 1343.47 1831.91 1316.65 1848.26 1300.28 1864.62 1283.91 1891.41 1283.91 1907.76 1300.28L2179.5 1571.63 2451.24 1300.28C2467.59 1283.91 2494.38 1283.91 2510.74 1300.28 2527.09 1316.65 2527.09 1343.47 2510.74 1359.84L2209.07 1660.81C2201.42 1668.82 2190.63 1673 2179.85 1673L2179.85 1673 2179.85 1673Z" fill="#EE7D00" fill-rule="evenodd"/><path d="M1265.86 1672C1255.09 1672 1244.32 1667.83 1235.98 1659.84L1085.15 1509.78 934.676 1659.49C918.343 1675.82 891.584 1675.82 875.25 1659.49 858.917 1643.17 858.917 1616.42 875.25 1600.09L1055.61 1420.16C1063.61 1412.17 1074.38 1408 1085.5 1408 1096.62 1408 1107.39 1412.52 1115.39 1420.16L1295.75 1600.09C1312.08 1616.42 1312.08 1643.17 1295.75 1659.49 1287.41 1667.83 1276.64 1672 1265.86 1672L1265.86 1672 1265.86 1672Z" fill="#814997" fill-rule="evenodd"/><path d="M1994.86 1672C1984.09 1672 1973.32 1667.83 1964.98 1659.84L1814.15 1509.78 1663.68 1659.49C1647.34 1675.82 1620.58 1675.82 1604.25 1659.49 1587.92 1643.17 1587.92 1616.42 1604.25 1600.09L1784.61 1420.16C1792.61 1412.17 1803.38 1408 1814.5 1408 1825.62 1408 1836.39 1412.52 1844.39 1420.16L2024.75 1600.09C2041.08 1616.42 2041.08 1643.17 2024.75 1659.49 2016.41 1667.83 2005.64 1672 1994.86 1672L1994.86 1672 1994.86 1672Z" fill="#94B422" fill-rule="evenodd"/><path d="M2664.41 1631.93 2803.51 1495.13C2829.58 1469.72 2847.32 1447.44 2856.71 1427.95 2866.1 1408.46 2870.62 1388.27 2870.62 1367.04 2870.62 1332.58 2858.45 1305.78 2834.1 1285.94 2809.76 1266.09 2776.73 1256.35 2735 1256.35 2703.71 1256.35 2675.89 1261.57 2651.2 1271.66 2626.51 1281.76 2606 1296.38 2590 1314.83L2619.9 1340.58C2646.33 1310.3 2683.54 1294.99 2731.53 1294.99 2762.47 1294.99 2786.12 1301.6 2802.46 1315.17 2818.81 1328.75 2827.5 1347.55 2827.5 1371.56 2827.5 1387.23 2823.67 1402.54 2816.02 1418.21 2808.37 1433.52 2793.77 1451.97 2772.56 1472.85L2602.52 1639.58 2602.52 1669.52 2889.74 1669.52 2889.74 1631.93 2664.41 1631.93 2664.41 1631.93ZM3097.33 1673C3128.98 1673 3157.14 1664.65 3181.83 1647.94 3206.52 1631.23 3225.99 1607.21 3239.9 1575.54 3253.81 1544.21 3261.12 1507.31 3261.12 1464.5 3261.12 1422.03 3254.16 1385.14 3239.9 1353.46 3225.99 1322.14 3206.52 1298.12 3181.83 1281.06 3157.14 1264.35 3128.98 1256 3097.33 1256 3065.69 1256 3037.53 1264.35 3012.84 1281.06 2988.15 1297.77 2968.68 1321.79 2954.77 1353.46 2940.86 1384.79 2933.9 1421.69 2933.9 1464.5 2933.9 1506.97 2940.86 1543.86 2954.77 1575.54 2968.68 1606.86 2987.8 1630.88 3012.84 1647.94 3037.53 1664.65 3065.69 1673 3097.33 1673L3097.33 1673ZM3097.33 1634.36C3073.69 1634.36 3052.48 1627.75 3034.4 1614.52 3016.31 1601.3 3002.06 1581.8 2991.97 1556.39 2981.89 1530.98 2976.67 1500.35 2976.67 1464.5 2976.67 1428.65 2981.89 1398.02 2991.97 1372.61 3002.06 1347.2 3016.31 1328.05 3034.4 1314.48 3052.48 1301.25 3073.34 1294.64 3097.33 1294.64 3120.98 1294.64 3142.19 1301.25 3160.27 1314.48 3178.36 1327.7 3192.61 1347.2 3202.7 1372.61 3212.78 1398.02 3218 1428.65 3218 1464.5 3218 1500.35 3212.78 1530.98 3202.7 1556.39 3192.61 1581.8 3178.36 1600.95 3160.27 1614.52 3141.84 1627.75 3120.98 1634.36 3097.33 1634.36L3097.33 1634.36ZM3368.56 1631.93 3507.65 1495.13C3533.73 1469.72 3551.47 1447.44 3560.86 1427.95 3570.25 1408.46 3574.77 1388.27 3574.77 1367.04 3574.77 1332.58 3562.59 1305.78 3538.25 1285.94 3513.91 1266.09 3480.88 1256.35 3439.15 1256.35 3407.86 1256.35 3380.04 1261.57 3355.35 1271.66 3330.66 1281.76 3310.14 1296.38 3294.15 1314.83L3324.05 1340.58C3350.48 1310.3 3387.69 1294.99 3435.67 1294.99 3466.62 1294.99 3490.27 1301.6 3506.61 1315.17 3523.3 1328.75 3531.65 1347.55 3531.65 1371.56 3531.65 1387.23 3527.82 1402.54 3520.17 1418.21 3512.52 1433.52 3497.92 1451.97 3476.71 1472.85L3306.67 1639.58 3306.67 1669.52 3593.54 1669.52 3593.54 1631.93 3368.56 1631.93 3368.56 1631.93ZM3975 1524.37 3893.28 1524.37 3893.28 1429.69 3852.25 1429.69 3852.25 1524.37 3674.56 1524.37 3883.9 1259.83 3836.95 1259.83 3619.97 1531.33 3619.97 1561.61 3850.86 1561.61 3850.86 1669.17 3892.94 1669.17 3892.94 1561.61 3974.65 1561.61 3974.65 1524.37 3975 1524.37 3975 1524.37Z" fill="#1E3B7D" fill-rule="evenodd"/></g></svg>